<svg xmlns="http://www.w3.org/2000/svg" viewBox="0 0 2000 2000">
    <defs>
        <style>
            .cls-1 {
                fill: #7fc44c;
            }

            .cls-2 {
                fill: #49aa00;
            }

            .cls-3 {
                fill: #6c7577;
            }

            .cls-4 {
                fill: #d2d2d2;
            }

            .cls-5 {
                opacity: 0.2;
            }

            .cls-6 {
                fill: #3c3c3c;
            }

            .cls-7 {
                fill: #dcdcdc;
            }

            .cls-8 {
                fill: #434343;
            }

            .cls-9 {
                fill: #2c2c2c;
            }

            .cls-10 {
                fill: #5a5a5a;
            }

            .cls-11 {
                fill: #f2f2f2;
            }

            .cls-12 {
                fill: #bd0000;
            }

            .cls-13 {
                fill: #df2700;
            }

            .cls-14 {
                fill: #ff4709;
            }

            .cls-15 {
                fill: #ff8259;
            }

            .cls-16 {
                fill: #fff;
            }

            .cls-17 {
                opacity: 0.1;
            }

            .cls-18 {
                fill: #d4d7d7;
            }

            .cls-19 {
                fill: #b80000;
            }

            .cls-20 {
                fill: #9fcae6;
            }

            .cls-21 {
                fill: #d60e1c;
            }

            .cls-22 {
                fill: #e5636c;
            }

            .cls-23 {
                fill: #ac3900;
            }

            .cls-24 {
                fill: #e47107;
            }

            .cls-25 {
                fill: #d05300;
            }

            .cls-26 {
                fill: #10a75d;
            }

            .cls-27 {
                fill: #10bf6e;
            }

            .cls-28 {
                fill: #4fcf94;
            }

            .cls-29 {
                fill: #d75f00;
            }

            .cls-30 {
                fill: #e98b0b;
            }

            .cls-31 {
                fill: #e57200;
            }

            .cls-32 {
                fill: #eda738;
            }

            .cls-33 {
                fill: #9a9a9a;
            }

            .cls-34 {
                fill: #b5b5b5;
            }

            .cls-35 {
                fill: #9c9c9c;
            }

            .cls-36 {
                fill: #cfcfcf;
            }

            .cls-37 {
                fill: #008dc1;
            }

            .cls-38 {
                fill: #00a9dd;
            }

            .cls-39 {
                fill: #43c0e6;
            }

            .cls-40 {
                fill: #006bbc;
            }

            .cls-41 {
                fill: #60a6d5;
            }

            .cls-42 {
                fill: #77b3db;
            }

            .cls-43 {
                fill: #4095cd;
            }

            .cls-44 {
                fill: #4b9acf;
            }

            .cls-45 {
                fill: #797979;
            }

            .cls-46 {
                fill: #6aace3;
            }

            .cls-47 {
                fill: #cdd0d0;
            }

            .cls-48 {
                fill: #e4e6e6;
            }

            .cls-49 {
                fill: #b00000;
            }

            .cls-50 {
                fill: #cb4c00;
            }

            .cls-51 {
                fill: #008226;
            }
        </style>
    </defs>
    <title>city</title>
    <g id="road">
        <rect class="cls-1" width="2000" height="2000" />
        <polygon class="cls-2" points="2000 1197.95 518.66 2000 1087.95 2000 2000 1506.18 2000 1197.95" />
        <polygon class="cls-2" points="1557.93 0 0 844.93 0 1153.16 2000 68.48 2000 0 1557.93 0" />
        <polygon class="cls-2" points="1500.16 2000 0 1187.76 0 1495.99 930.86 2000 1500.16 2000" />
        <polygon class="cls-3" points="1457.46 1998.33 0 1209.21 0 1471.21 973.56 1998.33 1457.46 1998.33" />
        <polygon class="cls-2" points="0 0 0 200.87 2000 1285.55 2000 977.31 197.98 0 0 0" />
        <polygon class="cls-3" points="0 0 0 177.75 2000 1262.43 2000 1000.43 155.35 0 0 0" />
        <polygon class="cls-4" points="169.44 118.97 87.88 74.74 65.81 81.33 65.61 81.67 146.83 125.7 169.44 118.97" />
        <polygon class="cls-4" points="353.28 218.67 271.72 174.44 249.65 181.03 249.46 181.37 330.67 225.42 353.28 218.67" />
        <polygon class="cls-4" points="544.04 325.9 462.49 281.67 440.41 288.25 440.22 288.59 521.43 332.64 544.04 325.9" />
        <polygon class="cls-4" points="734.1 424.72 652.55 380.49 630.47 387.07 630.28 387.41 711.49 431.45 734.1 424.72" />
        <polygon class="cls-4" points="918.58 528.84 837.03 484.61 814.96 491.19 814.76 491.53 895.97 535.57 918.58 528.84" />
        <polygon class="cls-4" points="1104.35 627.25 1022.8 583.02 1000.73 589.6 1000.54 589.94 1081.74 633.99 1104.35 627.25" />
        <polygon class="cls-4" points="1289.61 726.6 1208.07 682.37 1185.99 688.95 1185.8 689.3 1267.01 733.33 1289.61 726.6" />
        <polygon class="cls-4" points="1475.7 831.18 1394.14 786.96 1372.08 793.54 1371.89 793.88 1453.09 837.92 1475.7 831.18" />
        <polygon class="cls-4" points="1664.34 931.06 1582.79 886.82 1560.71 893.4 1560.53 893.74 1641.73 937.78 1664.34 931.06" />
        <polygon class="cls-4" points="1847.67 1031.7 1766.12 987.48 1744.05 994.05 1743.86 994.39 1825.07 1038.43 1847.67 1031.7" />
        <polygon class="cls-4" points="2000 1115 1956.29 1091.29 1934.2 1097.86 1934.02 1098.2 2000 1133.99 2000 1115" />
        <polygon class="cls-3" points="1600.55 0 0 868.04 0 1130.05 2000 45.36 2000 0 1600.55 0" />
        <polygon class="cls-4" points="1658.6 83.02 1740.14 38.79 1762.23 45.38 1762.41 45.71 1681.2 89.75 1658.6 83.02" />
        <polygon class="cls-4" points="1474.74 182.72 1556.3 138.5 1578.38 145.08 1578.57 145.42 1497.36 189.47 1474.74 182.72" />
        <polygon class="cls-4" points="1283.99 289.95 1365.55 245.72 1387.62 252.29 1387.81 252.64 1306.6 296.69 1283.99 289.95" />
        <polygon class="cls-4" points="1093.93 388.77 1175.48 344.54 1197.56 351.12 1197.75 351.46 1116.54 395.5 1093.93 388.77" />
        <polygon class="cls-4" points="909.45 492.89 990.99 448.66 1013.07 455.24 1013.26 455.58 932.05 499.62 909.45 492.89" />
        <polygon class="cls-4" points="723.68 591.29 805.23 547.07 827.3 553.65 827.49 553.99 746.28 598.03 723.68 591.29" />
        <polygon class="cls-4" points="538.41 690.65 619.97 646.42 642.04 653 642.23 653.34 561.02 697.38 538.41 690.65" />
        <polygon class="cls-4" points="352.33 795.23 433.88 751.01 455.95 757.59 456.14 757.92 374.94 801.97 352.33 795.23" />
        <polygon class="cls-4" points="163.69 895.1 245.24 850.87 267.31 857.45 267.5 857.79 186.3 901.83 163.69 895.1" />
        <polygon class="cls-4" points="83.98 958.1 61.91 951.53 0 985.1 0 1001.6 2.96 1002.48 84.17 958.44 83.98 958.1" />
        <polygon class="cls-4" points="149.12 1400.8 67.42 1356.57 45.31 1363.15 45.13 1363.49 126.47 1407.55 149.12 1400.8" />
        <polygon class="cls-4" points="340.19 1508.02 258.5 1463.79 236.39 1470.37 236.2 1470.71 317.55 1514.76 340.19 1508.02" />
        <polygon class="cls-4" points="530.57 1606.84 448.88 1562.61 426.77 1569.19 426.58 1569.53 507.92 1613.57 530.57 1606.84" />
        <polygon class="cls-4" points="715.36 1710.96 633.67 1666.73 611.56 1673.32 611.37 1673.65 692.71 1717.7 715.36 1710.96" />
        <polygon class="cls-4" points="901.44 1809.37 819.75 1765.14 797.64 1771.72 797.46 1772.07 878.8 1816.11 901.44 1809.37" />
        <polygon class="cls-4" points="1087.01 1908.72 1005.33 1864.49 983.21 1871.07 983.02 1871.42 1064.37 1915.46 1087.01 1908.72" />
        <polygon class="cls-4" points="1245.75 1998.33 1191.72 1969.08 1169.61 1975.66 1169.42 1976 1210.67 1998.33 1245.75 1998.33" />
        <polygon class="cls-3" points="2000 1221.07 561.36 2000 1045.26 2000 2000 1483.07 2000 1221.07" />
        <polygon class="cls-4" points="1848.45 1419.59 1930.14 1375.36 1952.26 1381.94 1952.45 1382.29 1871.11 1426.34 1848.45 1419.59" />
        <polygon class="cls-4" points="1657.38 1526.82 1739.07 1482.58 1761.18 1489.16 1761.37 1489.51 1680.02 1533.55 1657.38 1526.82" />
        <polygon class="cls-4" points="1467 1625.63 1548.69 1581.4 1570.8 1587.98 1570.99 1588.32 1489.64 1632.37 1467 1625.63" />
        <polygon class="cls-4" points="1282.21 1729.76 1363.89 1685.52 1386.01 1692.11 1386.2 1692.44 1304.85 1736.49 1282.21 1729.76" />
        <polygon class="cls-4" points="1096.13 1828.16 1177.82 1783.93 1199.93 1790.52 1200.11 1790.86 1118.77 1834.9 1096.13 1828.16" />
        <polygon class="cls-4" points="910.56 1927.51 992.25 1883.28 1014.36 1889.87 1014.55 1890.21 933.21 1934.24 910.56 1927.51" />
        <polygon class="cls-4" points="818.52 2000 828.15 1994.79 827.96 1994.45 805.85 1987.87 783.45 2000 818.52 2000" />
    </g>
    <g id="car15">
        <polygon class="cls-5" points="1604.5 70.38 1473.7 138.1 1473.69 159.73 1570.01 182.82 1699.47 107.6 1604.5 70.38" />
        <path d="M1603.74,74.91,1545.2,45c3.34,1.72,5,6.54,4.1,13.48-.09.71-.21,1.42-.36,2.14l58.54,30c.15-.72.28-1.44.37-2.14C1608.77,81.45,1607.1,76.62,1603.74,74.91Z" />
        <path d="M1526.25,82.63l58.55,30c-2.45-1.26-3.7-4.8-3-9.9,1.12-8.35,13.22-18.14,19.31-21.33L1536.3,51.82c-6.09,3.19-12,12.56-13.06,20.91C1522.56,77.83,1523.8,81.37,1526.25,82.63Z" />
        <path class="cls-6" d="M1594.84,81.78c-6.09,3.19-11.94,12.55-13.06,20.9s2.93,12.52,9,9.33,11.94-12.55,13.06-20.89S1600.94,78.59,1594.84,81.78Z" />
        <path class="cls-7" d="M1591.92,103.7c-2.75,1.44-4.56-.44-4.06-4.21s3.14-8,5.88-9.4,4.55.45,4,4.2-3.13,8-5.87,9.41Z" />
        <path class="cls-8" d="M1618.88,48.93,1560.33,19c-.81-.41-2-.28-3.53.39-2.94,1.26-11.65,3.26-18.28,6.37l55.3,31.94c6.64-3.11,18.58-7.1,21.53-8.37C1616.92,48.65,1618.08,48.52,1618.88,48.93Z" />
        <path class="cls-9" d="M1587.75,31.88,1529.2,1.93a3.05,3.05,0,0,0-2.88.23l58.54,30A3.07,3.07,0,0,1,1587.75,31.88Z" />
        <path d="M1514.24,121.79q-29.28-15-58.55-29.95c3.34,1.72,5,6.54,4.1,13.48-.1.71-.22,1.43-.36,2.15L1518,137.41c.15-.72.26-1.43.36-2.14C1519.27,128.33,1517.58,123.5,1514.24,121.79Z" />
        <path d="M1436.61,129.59l58.54,29.94c-2.46-1.25-3.7-4.8-3-9.9,1.13-8.33,13.17-18.16,19.25-21.35l-64.73-29.49c-6.09,3.18-11.94,12.55-13.06,20.9C1432.9,124.78,1434.15,128.33,1436.61,129.59Z" />
        <path class="cls-6" d="M1505.19,128.73c-6.08,3.19-11.94,12.57-13.07,20.9s2.94,12.54,9,9.34,11.95-12.55,13.06-20.9S1511.29,125.54,1505.19,128.73Z" />
        <path class="cls-7" d="M1502.26,150.65c-2.74,1.44-4.56-.44-4.06-4.19s3.13-8,5.88-9.41,4.55.45,4.05,4.21-3.12,8-5.87,9.39Z" />
        <polygon class="cls-8" points="1584.86 32.11 1526.32 2.16 1472.41 30.4 1530.96 60.34 1584.86 32.11" />
        <path class="cls-10" d="M1465.89,39.39c1.54-3.89,3.89-7.61,6.52-9L1531,60.34c-2.63,1.39-5,5.11-6.51,9l-8.29,23.46-58.55-29.95Z" />
        <path class="cls-8" d="M1414.87,129.66l58.55,30c-1-.51-1.5-1.85-1.23-3.79l-58.55-29.95C1413.38,127.81,1413.88,129.15,1414.87,129.66Z" />
        <path class="cls-10" d="M1477.74,129.3l-58.54-30c-.77,5.33-5.32,25.46-5.56,26.52l58.55,29.95C1472.43,154.77,1477,134.63,1477.74,129.3Z" />
        <path class="cls-8" d="M1516.16,92.79l-58.55-29.95c-.12.31-2.24,6.24-6,8.43-6.74,3.9-22.36,14.63-25.4,16.51-4.11,2.53-6.24,6.24-7,11.57l58.54,30c.75-5.33,2.89-9,7-11.57,3-1.87,18.66-12.61,25.4-16.51C1513.92,99,1516.06,93.1,1516.16,92.79Z" />
        <path class="cls-9" d="M1477.74,129.3c-.77,5.33-5.31,25.47-5.55,26.52-.44,3.31,1.33,4.88,4,3.51l12-6.28c.05-.66.11-1.35.22-2.06,1.51-11.35,9.46-24.08,17.75-28.42s13.78,1.35,12.26,12.7c-.1.71-.21,1.42-.36,2.14l59.65-31.25c0-.66.11-1.34.2-2,1.52-11.36,9.46-24.09,17.76-28.43s13.78,1.35,12.26,12.71c-.09.7-.22,1.42-.37,2.14l5.81-3c2.62-1.37,5.11-5.17,5.54-8.48,0-1,.59-19,1.24-24.26s-.72-7.15-4.72-5.44c-2.95,1.27-11.65,3.27-18.29,6.38-3.71,1.73-4.46-2.68-4.5-2.93l-2.79-17.66c-.64-2.73-2.28-4.36-4.91-3L1531,60.34c-2.63,1.39-5,5.11-6.51,9l-8.29,23.46c-.1.31-2.24,6.23-6,8.43-6.74,3.9-22.36,14.64-25.4,16.51C1480.63,120.26,1478.49,124,1477.74,129.3Z" />
        <path class="cls-11" d="M1558.55,73.62,1561,55.21a7.4,7.4,0,0,1,3.3-5.05l14.8-7.74c1.56-.82,2.8,0,3.29,1.58l2.25,15.94a7.34,7.34,0,0,1-3.31,5L1560.89,75.7c-1.55.82-2.6-.12-2.34-2.08Z" />
        <path class="cls-11" d="M1525.39,94.3c-1.57.82-2.61-.11-2.35-2.08l7.17-20.88c1-2.36,2.69-4.72,4.23-5.54l14.81-7.75c1.56-.81,2.6.12,2.34,2.09l-2.46,18.4a7.33,7.33,0,0,1-3.3,5L1525.39,94.3Z" />
        <path class="cls-11" d="M1512.4,85.76c1.44-4.06,5.65-16,5.65-16s1.57-3.15-2.33-5.11-36.64-18.4-41-20.69-5.29,2-5.29,2-3.54,8.71-5.18,14.67c-1.52,5.54,1.72,6.54,1.72,6.54l40.82,20.59S1511,89.8,1512.4,85.76Z" />
        <path class="cls-11" d="M1421.71,119.41c-.45,4.84,1.83,9,5.1,9.3s6.3-3.36,6.74-8.2-1.83-9-5.09-9.29S1422.17,114.57,1421.71,119.41Z" />
        <path class="cls-11" d="M1455.63,135.93c-.45,4.84,1.83,9,5.1,9.31s6.29-3.37,6.74-8.2-1.83-9-5.1-9.31S1456.08,131.1,1455.63,135.93Z" />
    </g>
    <g id="car14">
        <polygon class="cls-5" points="1227.97 258.56 1064.63 350.55 1064.62 372.18 1160.94 395.27 1326.27 304.12 1227.97 258.56" />
        <path class="cls-12" d="M1204.46,279.36l-59-29.09c3.37,1.67,5.13,6.47,4.31,13.42-.09.72-.2,1.43-.33,2.15l59,29.08c.13-.72.25-1.44.33-2.14C1209.59,285.81,1207.83,281,1204.46,279.36Z" />
        <path class="cls-13" d="M1243.77,192.69l-59-29.07a4.87,4.87,0,0,0-4.26.47l59,29.09A4.91,4.91,0,0,1,1243.77,192.69Z" />
        <path d="M1126.93,288.66l59,29.08c-2.48-1.22-3.77-4.74-3.17-9.85,1-8.36,13.2-18.16,19.25-21.44l-65.48-28.73c-6,3.28-11.76,12.74-12.75,21.09C1123.16,283.92,1124.45,287.44,1126.93,288.66Z" />
        <path class="cls-6" d="M1195.5,286.8c-6,3.28-11.76,12.73-12.75,21.09s3.11,12.48,9.15,9.2,11.75-12.71,12.74-21.07S1201.55,283.52,1195.5,286.8Z" />
        <path class="cls-7" d="M1192.89,308.76c-2.72,1.48-4.56-.37-4.11-4.13s3-8,5.73-9.49,4.57.37,4.12,4.13-3,8-5.74,9.49Z" />
        <path class="cls-12" d="M1108.18,331.62q-29.49-14.56-59-29.1c3.37,1.67,5.13,6.46,4.3,13.43-.08.71-.19,1.41-.32,2.15l59,29.07c.15-.73.25-1.44.34-2.15C1113.31,338.07,1111.55,333.27,1108.18,331.62Z" />
        <path d="M1030.94,340.77l59,29.07c-2.48-1.21-3.78-4.74-3.17-9.85,1-8.36,13-18.33,19-21.6l-65.22-28.58c-6,3.29-11.76,12.75-12.76,21.11C1027.16,336,1028.46,339.55,1030.94,340.77Z" />
        <path class="cls-6" d="M1099.51,338.9c-6,3.28-11.76,12.73-12.75,21.09s3.11,12.48,9.15,9.2,11.76-12.73,12.75-21.08S1105.56,335.62,1099.51,338.9Z" />
        <path class="cls-7" d="M1096.9,360.86c-2.72,1.48-4.56-.37-4.12-4.14s3-8,5.75-9.5,4.56.39,4.11,4.16-3,8-5.74,9.48Z" />
        <path class="cls-14" d="M1005.25,342.94l59,29.09c-1-.49-1.5-1.82-1.27-3.76l-59-29.08C1003.73,341.11,1004.25,342.45,1005.25,342.94Z" />
        <polygon class="cls-14" points="1239.51 193.18 1180.53 164.09 1046.68 236.74 1105.66 265.82 1239.51 193.18" />
        <path class="cls-15" d="M1068.11,341.66l-59-29.09c-1.25,6.28-5,25.59-5.17,26.62l59,29.08C1063.14,367.24,1066.86,347.93,1068.11,341.66Z" />
        <path class="cls-14" d="M1089.57,313.5l-59-29.09c0,.21-.88,4.19-5.89,8.53-2.26,2-5.72,5.31-8.73,8a18.85,18.85,0,0,0-6.82,11.66l59,29.09a19,19,0,0,1,6.82-11.67c3-2.65,6.47-6,8.73-8C1088.67,317.69,1089.52,313.7,1089.57,313.5Z" />
        <polygon class="cls-15" points="1099.28 274.9 1040.3 245.81 1030.57 284.41 1089.57 313.5 1099.28 274.9" />
        <path class="cls-13" d="M1068.11,341.66c-1.25,6.27-5,25.58-5.16,26.61-.4,3.3,1.39,4.85,4,3.44l15.59-8.45c0-.67.09-1.35.18-2.07,1.34-11.38,9.1-24.23,17.34-28.69s13.78,1.15,12.44,12.52c-.09.71-.19,1.42-.34,2.15L1178.8,311c0-.67.09-1.36.18-2.06,1.35-11.37,9.11-24.23,17.34-28.69s13.79,1.15,12.44,12.53c-.08.7-.2,1.42-.33,2.14l21.82-11.84c2.61-1.42,5-5.26,5.43-8.57.45-3.63,9-72.61,9.58-77.63s-3.13-5.13-5.75-3.7l-133.85,72.64c-2.6,1.41-4.9,5.18-6.38,9.08l-9.71,38.6c0,.2-.9,4.19-5.91,8.52-2.26,2-5.71,5.32-8.73,8A19,19,0,0,0,1068.11,341.66Z" />
        <path class="cls-11" d="M1130.1,283.54l2.2-18.44a7.36,7.36,0,0,1,3.22-5.08l13.67-7.42c1.56-.84,2.62.07,2.39,2.05l-2.2,18.43a7.33,7.33,0,0,1-3.22,5.09l-13.68,7.42c-1.55.84-2.61-.07-2.38-2Z" />
        <path class="cls-11" d="M1212,239.1l2.18-18.44a7.39,7.39,0,0,1,3.23-5.09l13.67-7.43c1.55-.84,2.62.08,2.38,2.06l-2.18,18.43a7.38,7.38,0,0,1-3.23,5.09l-13.68,7.43c-1.54.83-2.61-.08-2.37-2.05Z" />
        <path class="cls-11" d="M1157.41,268.73l2.19-18.44a7.34,7.34,0,0,1,3.23-5.08l13.67-7.43c1.54-.84,2.61.08,2.38,2l-2.2,18.45a7.33,7.33,0,0,1-3.21,5.08l-13.69,7.43c-1.54.84-2.6-.08-2.37-2Z" />
        <path class="cls-11" d="M1184.7,253.91l2.2-18.44a7.34,7.34,0,0,1,3.22-5.08l13.67-7.44c1.55-.82,2.62.1,2.39,2.06l-2.2,18.44a7.36,7.36,0,0,1-3.22,5.09L1187.08,256c-1.54.85-2.61-.07-2.38-2.05Z" />
        <path class="cls-11" d="M1105.07,300.47c-1.26.69-2.09-.35-1.86-2.33l4.07-19.45c.85-2.31,2.21-4.54,3.47-5.22l11.68-6.34c1.25-.69,2.08.36,1.85,2.33l-2.19,18.44c-.24,2-1.45,4.12-2.7,4.81l-14.32,7.76Z" />
        <path class="cls-15" d="M1105.66,265.82l-59-29.08c-2.61,1.41-4.9,5.18-6.38,9.07l59,29.09C1100.76,271,1103.06,267.23,1105.66,265.82Z" />
        <path class="cls-11" d="M1087.33,299.38c1.47-4,4.27-15.89,4.27-15.89s1.6-3.1-2.35-5.06-37.13-18.44-41.54-20.74-5.37,1.94-5.37,1.94-2.1,8.73-3.78,14.61c-1.55,5.43,1.74,6.45,1.74,6.45l41.35,20.64S1085.88,303.37,1087.33,299.38Z" />
        <path class="cls-16" d="M1011.43,332.27c-.38,4.85,2,9,5.23,9.24s6.24-3.45,6.62-8.29-2-9-5.23-9.24S1011.81,327.43,1011.43,332.27Z" />
        <path class="cls-16" d="M1045.59,348.3c-.39,4.84,2,9,5.23,9.23s6.23-3.45,6.62-8.29-2-9-5.24-9.24S1046,343.46,1045.59,348.3Z" />
    </g>
    <g id="house05">
        <polygon class="cls-17" points="2000 325.16 1918.79 299.06 1770.48 357.56 1770.45 382.48 1963.08 428.66 2000 415.85 2000 325.16" />
        <polygon class="cls-18" points="1765.58 259.47 1916.42 199.34 1921.28 322.33 1770.44 382.46 1765.58 259.47" />
        <polygon class="cls-19" points="1714.8 102.41 1865.63 42.28 1793.6 98 1642.76 158.13 1714.8 102.41" />
        <polygon class="cls-16" points="1711.13 129.16 1787 273.39 1765.58 259.47 1770.44 382.46 1670.19 317.36 1665.33 194.37 1643.89 180.45 1711.13 129.16" />
        <polygon class="cls-20" points="1741.84 301.54 1739.84 251.1 1691.7 219.84 1693.7 270.27 1741.84 301.54 1741.84 301.54" />
        <polygon class="cls-19" points="1711.13 129.16 1861.96 69.03 1937.84 213.25 1787 273.39 1711.13 129.16" />
        <polygon class="cls-21" points="1713.88 80.14 1864.71 20 1954.01 190.65 1803.17 250.78 1713.88 80.14" />
        <polygon class="cls-22" points="1713.88 80.14 1803.17 250.78 1796.04 257.7 1714.8 102.41 1642.76 158.13 1634.64 141.37 1713.88 80.14" />
    </g>
    <g id="house04">
        <polygon class="cls-17" points="1634.71 418.24 1405.54 536.38 1405.51 579.64 1598.15 625.82 1847.99 502.69 1634.71 418.24" />
        <polygon class="cls-18" points="1390.86 471.22 1647.72 339.47 1662.35 447.89 1405.49 579.64 1390.86 471.22" />
        <polygon class="cls-23" points="1325.08 336.91 1581.94 205.16 1517.19 257.52 1260.33 389.27 1325.08 336.91" />
        <polygon class="cls-16" points="1327.98 358.53 1412.56 482.55 1390.86 471.22 1405.49 579.64 1303.86 526.55 1289.23 418.13 1267.48 406.76 1327.98 358.53" />
        <polygon class="cls-20" points="1371.45 509.42 1365.45 464.95 1316.63 439.45 1322.63 483.92 1371.45 509.42 1371.45 509.42" />
        <polygon class="cls-23" points="1327.98 358.53 1584.84 226.78 1669.42 350.8 1412.56 482.55 1327.98 358.53" />
        <polygon class="cls-24" points="1422.04 464.07 1678.9 332.32 1672.59 338.72 1415.74 470.47 1422.04 464.07" />
        <polygon class="cls-25" points="1322.4 317.24 1579.25 185.5 1678.9 332.32 1422.04 464.07 1322.4 317.24" />
        <polygon class="cls-24" points="1322.4 317.24 1422.04 464.07 1415.74 470.47 1325.08 336.91 1260.33 389.27 1251.2 374.86 1322.4 317.24" />
    </g>
    <g id="house03">
        <polygon class="cls-17" points="2000 747.8 1941.81 728.66 1791.95 787.76 1791.91 812.69 1984.55 858.87 2000 853.36 2000 747.8" />
        <polygon class="cls-18" points="1787.06 689.71 1937.89 629.57 1942.76 752.56 1791.92 812.69 1787.06 689.71" />
        <polygon class="cls-23" points="1736.27 532.64 1887.11 472.51 1815.07 528.23 1664.23 588.36 1736.27 532.64" />
        <polygon class="cls-16" points="1732.61 559.39 1808.47 703.62 1787.06 689.71 1791.92 812.69 1691.67 747.58 1686.8 624.6 1665.37 610.68 1732.61 559.39" />
        <polygon class="cls-20" points="1763.31 731.76 1761.31 681.33 1713.18 650.07 1715.17 700.5 1763.31 731.76 1763.31 731.76" />
        <polygon class="cls-23" points="1732.61 559.39 1883.44 499.26 1959.31 643.48 1808.47 703.62 1732.61 559.39" />
        <polygon class="cls-25" points="1735.35 510.36 1886.19 450.23 1975.48 620.88 1824.65 681.01 1735.35 510.36" />
        <polygon class="cls-24" points="1735.35 510.36 1824.65 681.01 1817.51 687.93 1736.27 532.64 1664.23 588.36 1656.12 571.6 1735.35 510.36" />
    </g>
    <g id="car13">
        <polygon class="cls-5" points="311.95 222.91 239.34 271.65 239.33 293.28 313.98 316.37 403.45 268.12 311.95 222.91" />
        <path class="cls-26" d="M145.83,215.86Q175,200.7,204.17,185.52c-3.33,1.74-5,6.57-4,13.51.1.7.22,1.41.38,2.14l-58.35,30.35c-.15-.73-.27-1.43-.37-2.15C140.84,222.44,142.5,217.6,145.83,215.86Z" />
        <path d="M223.35,222.41Q194.16,237.58,165,252.76c2.46-1.27,3.67-4.83,2.95-9.92-1.17-8.35-13.92-17.61-20-20.76l65.19-30.4c6.11,3.14,12,12.47,13.2,20.8C227,217.59,225.8,221.14,223.35,222.41Z" />
        <path class="cls-6" d="M154.76,222c6.11,3.15,12,12.47,13.19,20.82s-2.83,12.54-8.95,9.38-12-12.45-13.19-20.78S148.64,218.88,154.76,222Z" />
        <path class="cls-7" d="M157.83,243.93c2.76,1.41,4.57-.46,4-4.22s-3.18-8-6-9.38-4.55.48-4,4.24,3.19,7.94,5.93,9.36Z" />
        <path class="cls-26" d="M135.75,160.08l58.34-30.35a4.46,4.46,0,0,1,4.08.2l-58.34,30.35A4.46,4.46,0,0,0,135.75,160.08Z" />
        <path class="cls-26" d="M223.79,256l58.35-30.34c-3.34,1.74-5,6.57-4,13.5.1.7.23,1.42.38,2.14l-58.35,30.35c-.14-.72-.27-1.44-.37-2.13C218.8,262.6,220.46,257.76,223.79,256Z" />
        <path d="M301.31,262.57,243,292.92c2.45-1.28,3.67-4.83,3-9.92-1.18-8.33-14.08-17.49-20.19-20.64l65.32-30.53c6.11,3.15,12,12.48,13.21,20.82C305,257.74,303.76,261.3,301.31,262.57Z" />
        <path class="cls-6" d="M232.72,262.18c6.11,3.15,12,12.49,13.21,20.82s-2.85,12.54-9,9.39-12-12.46-13.2-20.81S226.6,259,232.72,262.18Z" />
        <path class="cls-7" d="M235.8,284.08c2.76,1.43,4.56-.47,4-4.22s-3.19-7.95-5.94-9.37-4.56.48-4,4.24,3.19,7.93,5.94,9.35Z" />
        <polygon class="cls-27" points="139.83 160.28 198.17 129.93 264.99 164.35 206.65 194.69 139.83 160.28" />
        <path class="cls-26" d="M271.57,173.28c-1.56-3.86-3.94-7.58-6.58-8.93l-58.34,30.34c2.63,1.36,5,5.08,6.57,8.95L221.67,227,280,196.68Z" />
        <path class="cls-28" d="M258.43,262.29c.8,5.32,5.48,25.43,5.73,26.49.46,3.31-1.29,4.89-3.92,3.54l-10.12-5.21c0-.66-.11-1.36-.21-2.05-1.6-11.35-9.63-24-18-28.33s-13.77,1.45-12.17,12.81c.1.69.23,1.41.37,2.13l-48-24.71c0-.68-.13-1.36-.22-2.06-1.6-11.36-9.64-24-18-28.32s-13.77,1.45-12.17,12.79c.1.72.22,1.42.37,2.15l-11.78-6.07c-2.64-1.37-5.15-5.15-5.62-8.46L134,162.82c.33-2.89,3.2-3.91,5.85-2.54l66.82,34.41c2.63,1.36,5,5.08,6.57,8.95L221.67,227c.11.31,2.29,6.22,6.07,8.39,6.77,3.85,20.55,13.5,23.61,15.36C255.47,253.27,257.64,257,258.43,262.29Z" />
        <path class="cls-11" d="M172.28,206.63l-2.58-18.39a7.4,7.4,0,0,0-3.33-5l-22-11.32c-1.56-.8-2.79,0-3.28,1.61l-2.13,16a7.38,7.38,0,0,0,3.34,5L170,208.73c1.56.8,2.61-.13,2.33-2.1Z" />
        <path class="cls-11" d="M213.33,231.07c1.56.81,2.61-.13,2.33-2.1l-7.32-20.82c-1-2.36-2.71-4.7-4.27-5.51l-22-11.31c-1.56-.81-2.6.13-2.33,2.09l2.59,18.4a7.4,7.4,0,0,0,3.33,5l27.65,14.24Z" />
        <path class="cls-27" d="M321.3,262.23,263,292.58c1-.51,1.47-1.86,1.2-3.8l58.34-30.35C322.77,260.36,322.29,261.72,321.3,262.23Z" />
        <path class="cls-26" d="M258.43,262.29,316.77,232c.8,5.33,5.49,25.42,5.73,26.48l-58.34,30.35C263.91,287.72,259.23,267.61,258.43,262.29Z" />
        <path class="cls-27" d="M221.67,227,280,196.68c.12.31,2.29,6.23,6.07,8.39,6.78,3.85,20.55,13.5,23.62,15.37,4.11,2.48,6.28,6.19,7.07,11.51l-58.34,30.34c-.79-5.31-3-9-7.08-11.51-3.06-1.86-16.84-11.51-23.61-15.36C224,233.25,221.78,227.34,221.67,227Z" />
        <path class="cls-16" d="M313.78,252.24c.48,4.84-1.77,9-5,9.35s-6.31-3.32-6.8-8.15,1.77-9,5-9.34S313.29,247.41,313.78,252.24Z" />
        <path class="cls-16" d="M280,269c.48,4.83-1.77,9-5,9.34s-6.31-3.32-6.79-8.15,1.77-9,5-9.34S279.49,264.18,280,269Z" />
        <path class="cls-11" d="M225.14,219c-1.46-4.05-5.77-16-5.77-16s-1.59-3.15,2.3-5.13,36.51-18.66,40.85-21,5.3,2,5.3,2,3.61,8.69,5.29,14.64c1.55,5.53-1.68,6.55-1.68,6.55L230.76,221S226.59,223,225.14,219Z" />
    </g>
    <g id="car12">
        <polygon class="cls-5" points="704.47 291.29 631.87 341.71 631.85 363.34 706.5 386.43 795.98 336.51 704.47 291.29" />
        <path class="cls-29" d="M578.92,244l-58.69,29.67c-3.36,1.69-5.06,6.51-4.17,13.46.09.69.22,1.42.35,2.14l58.69-29.67c-.14-.72-.26-1.44-.35-2.14C573.86,250.5,575.57,245.68,578.92,244Z" />
        <path class="cls-30" d="M509.81,243.52l58.69-29.67a4.69,4.69,0,0,1-3,.24c-2.09-.38-5.17-.53-7.92-1a5.15,5.15,0,0,0-3.07.19L495.79,243a4.94,4.94,0,0,1,3.06-.22c2.76.45,5.84.6,7.93,1A4.83,4.83,0,0,0,509.81,243.52Z" />
        <path d="M539.35,312l58.7-29.67c2.46-1.23,3.72-4.78,3.06-9.89-1.08-8.35-6.88-17.74-13-21l-65,29.26c6.09,3.22,18.21,13,19.29,21.35C543.08,307.19,541.82,310.73,539.35,312Z" />
        <path class="cls-6" d="M529.47,281.12c-6.08-3.22-10.14.94-9.06,9.29s6.88,17.75,13,21,10.13-.95,9-9.31S535.54,284.34,529.47,281.12Z" />
        <path class="cls-7" d="M532.3,303.05c-2.74-1.45-5.35-5.67-5.83-9.42s1.34-5.64,4.08-4.18,5.33,5.66,5.82,9.42-1.34,5.64-4.07,4.18Z" />
        <path class="cls-30" d="M573,175.32,514.27,205a3.07,3.07,0,0,1,2.88.26l58.69-29.68A3.06,3.06,0,0,0,573,175.32Z" />
        <path class="cls-29" d="M675.71,295.27,617,325c-3.36,1.69-5.07,6.51-4.18,13.46.1.7.22,1.42.36,2.14l58.69-29.67c-.13-.73-.26-1.44-.35-2.14C670.64,301.79,672.35,297,675.71,295.27Z" />
        <path d="M635.86,363.11l58.69-29.66c2.47-1.26,3.72-4.8,3.07-9.9-1.08-8.36-6.88-17.74-13-21l-63.85,28.75c6.08,3.23,17,13.53,18.11,21.88C639.58,358.32,638.33,361.86,635.86,363.11Z" />
        <path class="cls-6" d="M626,332.26c-6.08-3.23-10.14.95-9.05,9.3s6.88,17.74,13,21,10.13-.95,9-9.3S632.05,335.47,626,332.26Z" />
        <path class="cls-7" d="M628.8,354.19c-2.73-1.44-5.34-5.66-5.83-9.42s1.34-5.64,4.08-4.19,5.34,5.66,5.83,9.44-1.35,5.62-4.08,4.17Z" />
        <polygon class="cls-30" points="651.73 276.55 710.41 246.87 575.84 175.56 517.15 205.24 651.73 276.55" />
        <path class="cls-31" d="M667.65,368.24q29.36-14.82,58.69-29.66c1-.5,1.5-1.85,1.24-3.79-.44-3.59-8.92-72.1-9.58-77.09s-5-9.43-7.59-10.83l-58.68,29.68c2.63,1.39,6.94,5.8,7.59,10.81s9.13,73.5,9.57,77.11C669.15,366.4,668.64,367.75,667.65,368.24Z" />
        <path class="cls-32" d="M494.11,248.17c.23,5.7,1.08,23.34,1.12,24.27.42,3.32,2.9,7.14,5.52,8.52l15.66,8.3c-.13-.72-.26-1.45-.35-2.14-1.46-11.36,4-17,12.32-12.65S544.54,291.62,546,303c.09.7.15,1.39.19,2.06l67,35.5c-.14-.72-.26-1.44-.36-2.14-1.46-11.37,4.06-17,12.33-12.66s16.16,17.17,17.63,28.53c.09.69.15,1.38.19,2.05L664.92,368c2.62,1.38,4.4-.18,4-3.49-.44-3.61-8.93-72.11-9.57-77.11s-5-9.42-7.59-10.81L517.15,205.24c-2.61-1.39-4.27.23-4.92,3l-.94,32.64c0,.19.1,3.75-4.51,2.91-2.09-.39-5.17-.54-7.93-1C495.62,242.26,493.91,243.16,494.11,248.17Z" />
        <path class="cls-11" d="M577.4,268,575,249.56c-.25-2,.81-2.9,2.36-2.08l13.75,7.3a7.32,7.32,0,0,1,3.27,5l2.38,18.42c.25,2-.8,2.89-2.36,2.07L580.67,273a7.32,7.32,0,0,1-3.27-5Z" />
        <path class="cls-11" d="M604.85,282.52l-2.38-18.41c-.25-2,.8-2.9,2.36-2.07l13.75,7.27a7.41,7.41,0,0,1,3.27,5.07l2.37,18.41c.26,2-.8,2.9-2.35,2.07l-13.75-7.28a7.37,7.37,0,0,1-3.27-5.06Z" />
        <path class="cls-11" d="M550,253.44,547.58,235c-.26-2,.8-2.91,2.35-2.08l13.76,7.28a7.42,7.42,0,0,1,3.27,5.06l2.37,18.43c.25,2-.8,2.88-2.35,2.06l-13.76-7.29a7.35,7.35,0,0,1-3.27-5.05Z" />
        <path class="cls-11" d="M632.29,297.07l-2.37-18.42c-.26-2,.79-2.91,2.34-2.08l13.76,7.3a7.35,7.35,0,0,1,3.27,5.05l2.37,18.42c.26,2-.79,2.89-2.35,2.07l-13.75-7.29a7.35,7.35,0,0,1-3.27-5.05Z" />
        <path class="cls-11" d="M525.66,243.89c-1.27-.68-2.5-2.81-2.75-4.78l-.49-17.42c.37-1.64,1.34-2.61,2.59-1.95L536.77,226c1.26.66,2.49,2.81,2.74,4.78l2.37,18.41c.26,2-.56,3-1.82,2.37l-14.4-7.64Z" />
        <path class="cls-11" d="M667.13,307.5c-1.19-5.77-2.36-16.13-2.36-16.13a5.33,5.33,0,0,1,3.16-5.82c4-1.87,36.88-16.71,41.34-18.9s5.32,2.08,5.32,2.08,1.38,8.83,1.91,14.82c.51,5.64-1.89,6.41-1.89,6.41l-41.84,19.63S668,311.66,667.13,307.5Z" />
        <path class="cls-16" d="M719.76,325.41c.43,4.83-1.87,9-5.15,9.29s-6.27-3.4-6.7-8.24,1.87-9,5.15-9.28S719.33,320.57,719.76,325.41Z" />
        <path class="cls-16" d="M685.83,342.53c.42,4.84-1.87,9-5.15,9.29s-6.27-3.39-6.7-8.23,1.87-9,5.14-9.29S685.4,337.69,685.83,342.53Z" />
    </g>
    <g id="car11">
        <polygon class="cls-5" points="1138.62 473.19 1066.02 521.94 1066 543.57 1140.65 566.66 1230.13 518.4 1138.62 473.19" />
        <path class="cls-33" d="M1032.6,435.67,974,465.44c-3.35,1.71-5.06,6.53-4.15,13.47.1.71.22,1.42.36,2.15l58.64-29.78c-.14-.72-.26-1.44-.35-2.14C1027.55,442.19,1029.25,437.38,1032.6,435.67Z" />
        <path d="M992.77,502.53l58.64-29.78c2.46-1.24,3.71-4.79,3-9.89-1.09-8.36-6.9-17.74-13-20.94l-65.11,29.47c6.08,3.22,18.37,12.89,19.46,21.24C996.48,497.74,995.23,501.28,992.77,502.53Z" />
        <path class="cls-6" d="M982.82,471.69c-6.08-3.21-10.13,1-9,9.31s6.92,17.73,13,20.95,10.13-1,9-9.32S988.91,474.9,982.82,471.69Z" />
        <path class="cls-7" d="M985.69,493.62c-2.74-1.44-5.34-5.65-5.84-9.41s1.32-5.64,4.07-4.2,5.35,5.66,5.84,9.42-1.33,5.64-4.07,4.19Z" />
        <path class="cls-34" d="M983.35,446.4,1042,416.62a2.86,2.86,0,0,1-2.65-.15c-6.62-3.13-19.59-7.4-22.55-8.68-1.56-.67-2.72-.81-3.53-.4h0l-58.63,29.78c.8-.41,2-.28,3.52.4,3,1.27,15.93,5.55,22.56,8.68A2.9,2.9,0,0,0,983.35,446.4Z" />
        <path class="cls-33" d="M1110.16,476.6l-58.64,29.77c-3.35,1.69-5.06,6.52-4.14,13.46.09.71.22,1.42.35,2.14l58.64-29.77c-.14-.72-.26-1.43-.36-2.15C1105.1,483.11,1106.81,478.29,1110.16,476.6Z" />
        <path d="M1070.34,543.45,1129,513.68c2.46-1.26,3.72-4.8,3-9.9-1.09-8.35-6.91-17.73-13-20.94l-65,29.42c6.08,3.21,18.29,12.94,19.38,21.3C1074.05,538.66,1072.79,542.2,1070.34,543.45Z" />
        <path class="cls-6" d="M1060.38,512.61c-6.08-3.21-10.12,1-9,9.32s6.91,17.72,13,20.94,10.13-1,9.05-9.31S1066.47,515.82,1060.38,512.61Z" />
        <path class="cls-7" d="M1063.25,534.54c-2.74-1.44-5.35-5.65-5.84-9.41s1.33-5.64,4.07-4.2,5.35,5.66,5.84,9.43-1.32,5.63-4.07,4.18Z" />
        <polygon class="cls-34" points="1059.45 457.78 1118.08 428 1051.6 392.93 992.97 422.7 1059.45 457.78" />
        <path class="cls-35" d="M1092.7,543.58s45-23.32,52.24-26.52,4.48-8.94,4.48-8.94l-23.89-70.61-58.64,29.77Z" />
        <path class="cls-36" d="M953.41,443c.64,5.27,1.14,23.31,1.17,24.26.44,3.32,2.91,7.13,5.52,8.51l10.07,5.31c-.14-.73-.26-1.44-.36-2.15-1.48-11.36,4-17,12.31-12.67s16.18,17.12,17.67,28.48c.09.71.16,1.4.19,2.06L1047.73,522c-.13-.72-.26-1.43-.35-2.14-1.49-11.36,4-17,12.29-12.67s16.19,17.13,17.68,28.49c.1.71.17,1.39.2,2.06l11.73,6.18c2.63,1.39,4.4-.17,4-3.49l-26.35-73.12c-1.22-3.72-4.8-8.11-7.44-9.5L993,422.7c-2.62-1.38-4.25.25-4.91,3l-2.83,17.65c-.05.23-.81,4.64-4.51,2.91-6.63-3.13-19.6-7.41-22.56-8.68C954.16,435.83,952.76,437.7,953.41,443Z" />
        <path class="cls-11" d="M996,457.38a7.36,7.36,0,0,1-3.29-5.05L995,436.4c.5-1.57,1.75-2.41,3.29-1.59l21.87,11.54a7.43,7.43,0,0,1,3.29,5.06l2.4,18.41c.26,2-.79,2.9-2.35,2.07L996,457.38Z" />
        <path class="cls-11" d="M1035.82,475.1l-2.41-18.41c-.26-2,.79-2.91,2.35-2.08l21.86,11.53c1.56.82,3.21,3.19,4.24,5.56l7.1,20.89c.26,2-.79,2.9-2.36,2.06l-27.5-14.5a7.35,7.35,0,0,1-3.28-5Z" />
        <path class="cls-35" d="M1066.89,467.28l58.64-29.77c-1.23-3.73-4.81-8.12-7.45-9.51l-58.63,29.78C1062.09,459.17,1065.67,463.56,1066.89,467.28Z" />
        <path class="cls-16" d="M1139.84,502.63c1.36,4.66-.1,9.18-3.26,10.1s-6.79-2.12-8.15-6.79.1-9.18,3.25-10.09S1138.49,498,1139.84,502.63Z" />
        <path class="cls-16" d="M1106.52,519.13c1.36,4.66-.11,9.18-3.25,10.1s-6.82-2.12-8.17-6.79.11-9.18,3.26-10.1S1105.17,514.46,1106.52,519.13Z" />
        <path class="cls-11" d="M1082.56,492.32c-1.42-4.05-5.6-16-5.6-16s-1.56-3.16,2.33-5.1,36.7-18.29,41.07-20.57,5.28,2,5.28,2,3.51,8.72,5.14,14.69c1.5,5.54-1.75,6.53-1.75,6.53l-40.87,20.47S1084,496.38,1082.56,492.32Z" />
    </g>
    <g id="car10">
        <polygon class="cls-5" points="1259.62 726.48 1187.01 775.22 1187 796.85 1261.65 819.94 1351.12 771.69 1259.62 726.48" />
        <path class="cls-13" d="M1092.91,719.34,1151.25,689c-3.34,1.74-5,6.58-4,13.52.1.69.22,1.4.38,2.13L1089.27,735c-.15-.73-.28-1.43-.38-2.14C1087.92,725.92,1089.58,721.07,1092.91,719.34Z" />
        <path d="M1170.42,725.89q-29.18,15.17-58.34,30.35c2.45-1.28,3.66-4.84,3-9.93-1.18-8.34-13.92-17.61-20-20.76l65.18-30.4c6.12,3.14,12,12.47,13.2,20.81C1174.09,721.06,1172.87,724.61,1170.42,725.89Z" />
        <path class="cls-6" d="M1101.83,725.5c6.12,3.15,12,12.47,13.2,20.81s-2.84,12.54-9,9.39-12-12.46-13.2-20.79S1095.72,722.35,1101.83,725.5Z" />
        <path class="cls-7" d="M1104.91,747.41c2.76,1.41,4.56-.47,4-4.23s-3.18-7.95-5.94-9.37-4.55.47-4,4.23,3.18,7.94,5.93,9.37Z" />
        <path class="cls-13" d="M1082.82,663.55q29.19-15.16,58.35-30.35a4.49,4.49,0,0,1,4.08.2l-58.34,30.35A4.52,4.52,0,0,0,1082.82,663.55Z" />
        <path class="cls-13" d="M1170.87,759.49l58.34-30.34c-3.33,1.74-5,6.57-4,13.51.09.7.22,1.41.37,2.14l-58.34,30.35c-.15-.73-.28-1.44-.38-2.14C1165.87,766.07,1167.53,761.23,1170.87,759.49Z" />
        <path d="M1248.39,766l-58.34,30.35c2.45-1.28,3.67-4.82,3-9.92-1.17-8.33-14.07-17.48-20.18-20.64l65.31-30.52c6.12,3.15,12,12.47,13.21,20.82C1252.06,761.22,1250.84,764.77,1248.39,766Z" />
        <path class="cls-6" d="M1179.79,765.66c6.12,3.15,12,12.48,13.21,20.81s-2.84,12.55-9,9.39-12-12.45-13.19-20.8S1173.68,762.51,1179.79,765.66Z" />
        <path class="cls-7" d="M1182.88,787.56c2.76,1.42,4.55-.47,4-4.23s-3.18-7.94-5.94-9.36-4.55.47-4,4.23,3.18,7.93,5.94,9.36Z" />
        <polygon class="cls-14" points="1086.91 663.75 1145.24 633.4 1212.07 667.83 1153.72 698.16 1086.91 663.75" />
        <path class="cls-13" d="M1218.64,676.75c-1.55-3.85-3.94-7.57-6.57-8.93l-58.34,30.34c2.63,1.36,5,5.08,6.57,9l8.45,23.39,58.34-30.35Z" />
        <path class="cls-15" d="M1205.51,765.77c.79,5.32,5.48,25.42,5.73,26.49.46,3.31-1.3,4.88-3.93,3.53l-10.11-5.21c0-.66-.11-1.36-.21-2.05-1.61-11.35-9.63-24-18-28.32s-13.77,1.44-12.18,12.8c.1.7.23,1.41.38,2.14l-48-24.72c0-.68-.12-1.35-.22-2.06-1.59-11.36-9.63-24-18-28.31s-13.77,1.44-12.18,12.79c.1.71.23,1.41.38,2.14l-11.78-6.07c-2.65-1.37-5.16-5.15-5.62-8.45l9.19-54.18c.33-2.89,3.2-3.91,5.85-2.54l66.82,34.41c2.63,1.36,5,5.08,6.57,9l8.45,23.39c.11.32,2.29,6.23,6.07,8.39,6.77,3.85,20.55,13.5,23.61,15.37C1202.55,756.75,1204.72,760.45,1205.51,765.77Z" />
        <path class="cls-11" d="M1119.36,710.1l-2.59-18.39a7.32,7.32,0,0,0-3.33-5l-22-11.33c-1.56-.8-2.79,0-3.28,1.61l-2.13,16a7.31,7.31,0,0,0,3.34,5L1117,712.21c1.56.8,2.61-.14,2.33-2.11Z" />
        <path class="cls-11" d="M1160.4,734.54c1.57.81,2.62-.12,2.34-2.09l-7.32-20.83c-1-2.36-2.71-4.7-4.27-5.5l-22-11.32c-1.57-.81-2.61.13-2.33,2.1l2.58,18.39a7.42,7.42,0,0,0,3.33,5l27.65,14.24Z" />
        <path class="cls-14" d="M1268.38,765.7,1210,796.05c1-.51,1.47-1.85,1.2-3.79l58.34-30.36C1269.85,763.84,1269.36,765.19,1268.38,765.7Z" />
        <path class="cls-13" d="M1205.51,765.77l58.34-30.34c.79,5.32,5.48,25.42,5.73,26.47l-58.34,30.36C1211,791.19,1206.3,771.09,1205.51,765.77Z" />
        <path class="cls-14" d="M1168.75,730.5l58.34-30.35c.11.31,2.29,6.23,6.07,8.4,6.77,3.85,20.55,13.5,23.61,15.36,4.12,2.49,6.29,6.19,7.08,11.52l-58.34,30.34c-.79-5.32-3-9-7.08-11.51-3.06-1.87-16.84-11.52-23.61-15.37C1171,736.73,1168.86,730.82,1168.75,730.5Z" />
        <path class="cls-16" d="M1260.86,755.72c.48,4.84-1.77,9-5,9.35s-6.31-3.33-6.8-8.15,1.78-9,5-9.35S1260.37,750.89,1260.86,755.72Z" />
        <path class="cls-16" d="M1227.06,772.49c.48,4.83-1.77,9-5,9.34s-6.31-3.33-6.8-8.16,1.77-9,5-9.34S1226.57,767.65,1227.06,772.49Z" />
        <path class="cls-11" d="M1172.21,722.47l-5.76-16s-1.59-3.15,2.3-5.13,36.51-18.65,40.84-21,5.31,2,5.31,2,3.61,8.68,5.28,14.63c1.56,5.53-1.68,6.55-1.68,6.55l-40.67,20.87S1173.67,726.51,1172.21,722.47Z" />
    </g>
    <g id="car09">
        <polygon class="cls-5" points="1592.28 745.57 1519.67 794.32 1519.66 815.95 1594.31 839.04 1683.79 790.79 1592.28 745.57" />
        <path class="cls-37" d="M1474.72,700.82l-58.79,29.46c-3.36,1.69-5.09,6.5-4.21,13.44.09.72.21,1.42.34,2.15l58.79-29.47c-.14-.72-.26-1.44-.35-2.14C1469.64,707.31,1471.36,702.5,1474.72,700.82Z" />
        <path d="M1434.57,768.11l58.79-29.47c2.46-1.24,3.73-4.77,3.09-9.88-1-8.36-6.81-17.77-12.88-21L1419,736.52c6.07,3.24,17.64,13.35,18.69,21.71C1438.3,763.34,1437,766.88,1434.57,768.11Z" />
        <path class="cls-6" d="M1424.79,737.22c-6.07-3.24-10.15.91-9.1,9.26s6.82,17.77,12.89,21,10.13-.9,9.08-9.26S1430.85,740.46,1424.79,737.22Z" />
        <path class="cls-7" d="M1427.54,759.17c-2.73-1.46-5.33-5.68-5.8-9.45s1.36-5.63,4.09-4.17,5.32,5.68,5.79,9.46-1.35,5.62-4.08,4.16Z" />
        <path class="cls-38" d="M1425.43,711.29q29.38-14.73,58.79-29.47a2.88,2.88,0,0,1-2.65-.18c-6.61-3.16-21.45-8.52-24.41-9.8-1.55-.69-2.71-.82-3.52-.42-20,9-39.18,19.64-58.79,29.47.81-.4,2-.27,3.52.42,3,1.29,17.79,6.64,24.41,9.8A2.94,2.94,0,0,0,1425.43,711.29Z" />
        <path class="cls-37" d="M1491.07,657.91l-58.79,29.47a3,3,0,0,1,2.88.25L1494,658.17A3,3,0,0,0,1491.07,657.91Z" />
        <path class="cls-37" d="M1563.85,748.43q-29.4,14.72-58.79,29.47c-3.36,1.68-5.09,6.49-4.22,13.44.09.71.21,1.42.34,2.15L1560,764c-.13-.72-.25-1.43-.34-2.14C1558.76,754.93,1560.49,750.1,1563.85,748.43Z" />
        <path d="M1523.84,815.8q29.39-14.74,58.79-29.47c2.46-1.23,3.73-4.77,3.1-9.89-1-8.34-6.82-17.76-12.89-21L1508,784.34c6.07,3.23,17.9,13.22,18.94,21.58C1527.57,811,1526.3,814.56,1523.84,815.8Z" />
        <path class="cls-6" d="M1514.05,784.91c-6.07-3.24-10.14.91-9.09,9.27s6.82,17.77,12.89,21,10.13-.92,9.08-9.27S1520.12,788.15,1514.05,784.91Z" />
        <path class="cls-7" d="M1516.8,806.86c-2.72-1.46-5.32-5.68-5.79-9.44s1.36-5.64,4.09-4.18,5.32,5.69,5.79,9.45-1.35,5.62-4.09,4.17Z" />
        <path class="cls-37" d="M1509.32,757.35l58.78-29.48c-3.75-2.21-5.84-8.16-5.95-8.47l-58.79,29.46C1503.48,749.19,1505.56,755.12,1509.32,757.35Z" />
        <polygon class="cls-38" points="1488.84 716.32 1547.63 686.85 1493.95 658.17 1435.16 687.63 1488.84 716.32" />
        <polygon class="cls-37" points="1503.36 748.86 1562.15 719.4 1554.07 695.88 1495.27 725.35 1503.36 748.86" />
        <path class="cls-37" d="M1495.27,725.35l58.8-29.47c-1.51-3.9-3.83-7.64-6.44-9l-58.79,29.47C1491.45,717.71,1493.77,721.46,1495.27,725.35Z" />
        <path class="cls-38" d="M1539.41,812.75q29.4-14.73,58.79-29.47c1-.51,1.51-1.83,1.26-3.77L1540.66,809C1540.91,810.91,1540.41,812.25,1539.41,812.75Z" />
        <path class="cls-39" d="M1393.61,706.69c.61,5.28,1,23.33,1.05,24.27.4,3.32,2.85,7.14,5.47,8.54l11.93,6.37c-.13-.73-.25-1.43-.34-2.15-1.43-11.36,4.1-17,12.36-12.6s16.11,17.21,17.54,28.58c.08.7.14,1.39.18,2l59.38,31.74c-.13-.73-.25-1.44-.34-2.15-1.42-11.37,4.11-17,12.36-12.6s16.11,17.2,17.54,28.57c.08.71.14,1.39.18,2.05l5.77,3.09c2.61,1.4,4.39-.16,4-3.47-.22-1.07-4.61-21.25-5.32-26.57s-2.82-9.07-6.91-11.62c-3-1.9-12.4-9.49-19.11-13.44-3.76-2.23-5.84-8.16-6-8.49l-8.09-23.51c-1.5-3.89-3.82-7.64-6.43-9l-53.68-28.69c-2.62-1.39-4.26.23-4.93,3l-2.93,17.65c0,.22-.83,4.63-4.52,2.87-6.62-3.16-21.45-8.51-24.41-9.8C1394.39,699.55,1393,701.41,1393.61,706.69Z" />
        <path class="cls-11" d="M1438.25,720.45a7.36,7.36,0,0,1-3.26-5.07l2.37-15.91c.51-1.57,1.76-2.4,3.31-1.58l14.73,7.88a7.34,7.34,0,0,1,3.26,5.07l2.32,18.43c.24,2-.82,2.89-2.37,2.05l-20.36-10.87Z" />
        <path class="cls-11" d="M1470.35,734.28,1468,715.84c-.23-2,.82-2.89,2.37-2.06l14.74,7.87c1.54.83,3.19,3.2,4.2,5.58l7,20.93c.25,2-.81,2.89-2.36,2.06l-20.37-10.88a7.35,7.35,0,0,1-3.25-5.06Z" />
        <path class="cls-37" d="M1540.66,809l58.8-29.47c-.23-1.07-4.63-21.24-5.34-26.57s-2.81-9.06-6.9-11.62c-3-1.91-12.4-9.49-19.12-13.45l-58.78,29.48c6.71,3.95,16.08,11.54,19.11,13.44,4.09,2.55,6.2,6.28,6.91,11.62S1540.44,807.91,1540.66,809Z" />
        <path class="cls-11" d="M1509.21,746.22c-1.41-4.06-5.52-16-5.52-16s-1.55-3.16,2.36-5.1,36.79-18.1,41.17-20.36,5.26,2.07,5.26,2.07,3.48,8.73,5.07,14.72c1.48,5.54-1.78,6.51-1.78,6.51l-41,20.26S1510.6,750.28,1509.21,746.22Z" />
        <path class="cls-16" d="M1589.1,770.08c.41,4.84-1.9,9-5.17,9.27s-6.26-3.42-6.68-8.26,1.91-9,5.18-9.26S1588.69,765.23,1589.1,770.08Z" />
        <path class="cls-16" d="M1555.05,786.32c.42,4.85-1.91,9-5.18,9.27s-6.25-3.41-6.66-8.25,1.9-9,5.17-9.27S1554.64,781.49,1555.05,786.32Z" />
    </g>
    <g id="car08">
        <polygon class="cls-5" points="1829.11 1036.53 1756.51 1085.28 1756.49 1106.91 1831.14 1130 1920.62 1081.75 1829.11 1036.53" />
        <path class="cls-26" d="M1645.92,1016.24l59-29.08c-3.37,1.66-5.13,6.47-4.32,13.41.09.72.2,1.43.34,2.16l-59,29.08c-.14-.73-.25-1.44-.34-2.15C1640.78,1022.7,1642.55,1017.9,1645.92,1016.24Z" />
        <path class="cls-26" d="M1606.61,929.58l59-29.08a4.9,4.9,0,0,1,4.26.48l-59,29.08A4.94,4.94,0,0,0,1606.61,929.58Z" />
        <path d="M1723.44,1025.55l-59,29.08c2.48-1.22,3.77-4.74,3.17-9.85-1-8.36-13.21-18.17-19.25-21.45l65.48-28.72c6.05,3.28,11.76,12.74,12.75,21.09C1727.22,1020.81,1725.93,1024.33,1723.44,1025.55Z" />
        <path class="cls-6" d="M1654.88,1023.69c6,3.27,11.75,12.73,12.75,21.09s-3.11,12.48-9.15,9.2-11.75-12.72-12.74-21.08S1648.83,1020.41,1654.88,1023.69Z" />
        <path class="cls-7" d="M1657.49,1045.65c2.72,1.47,4.56-.38,4.11-4.14s-3-8-5.73-9.49-4.57.37-4.12,4.14,3,8,5.74,9.49Z" />
        <path class="cls-26" d="M1742.2,1068.5l59-29.09c-3.37,1.66-5.13,6.46-4.3,13.43.08.7.19,1.41.32,2.14l-59,29.07c-.14-.72-.24-1.43-.33-2.14C1737.06,1075,1738.83,1070.15,1742.2,1068.5Z" />
        <path d="M1819.44,1077.65l-59,29.08c2.48-1.21,3.78-4.74,3.17-9.85-1-8.36-12.95-18.33-19-21.6l65.22-28.58c6,3.28,11.76,12.74,12.76,21.1C1823.21,1072.91,1821.92,1076.43,1819.44,1077.65Z" />
        <path class="cls-6" d="M1750.87,1075.79c6,3.28,11.75,12.73,12.75,21.09s-3.12,12.48-9.15,9.19-11.76-12.72-12.75-21.08S1744.82,1072.5,1750.87,1075.79Z" />
        <path class="cls-7" d="M1753.48,1097.75c2.72,1.47,4.56-.37,4.11-4.14s-3-8-5.74-9.5-4.56.39-4.11,4.15,3,8,5.74,9.49Z" />
        <path class="cls-27" d="M1845.13,1079.82l-59,29.1c1-.49,1.51-1.83,1.28-3.77l59-29.08C1846.65,1078,1846.13,1079.33,1845.13,1079.82Z" />
        <polygon class="cls-27" points="1610.87 930.06 1669.85 900.98 1803.7 973.63 1744.71 1002.71 1610.87 930.06" />
        <path class="cls-26" d="M1782.27,1078.54l59-29.08c1.25,6.27,5,25.59,5.17,26.61l-59,29.08C1787.24,1104.13,1783.52,1084.81,1782.27,1078.54Z" />
        <path class="cls-27" d="M1760.81,1050.39l59-29.09c0,.21.88,4.18,5.88,8.52,2.27,2,5.73,5.31,8.74,8a18.89,18.89,0,0,1,6.82,11.66l-59,29.08a18.93,18.93,0,0,0-6.82-11.66c-3-2.66-6.47-6-8.74-8C1761.71,1054.57,1760.86,1050.59,1760.81,1050.39Z" />
        <polygon class="cls-26" points="1751.1 1011.79 1810.08 982.7 1819.81 1021.3 1760.81 1050.38 1751.1 1011.79" />
        <path class="cls-28" d="M1782.27,1078.54c1.25,6.27,5,25.59,5.16,26.61.39,3.31-1.4,4.85-4,3.44l-15.58-8.45c0-.67-.09-1.34-.18-2.07-1.34-11.37-9.1-24.22-17.34-28.68s-13.79,1.15-12.44,12.52c.09.71.19,1.42.33,2.14l-66.65-36.16c0-.67-.08-1.36-.17-2.07-1.35-11.37-9.11-24.22-17.34-28.68s-13.8,1.14-12.45,12.52c.09.71.2,1.42.34,2.15L1620.13,1020c-2.62-1.43-5-5.26-5.43-8.57-.45-3.63-9-72.62-9.58-77.63s3.12-5.13,5.75-3.71l133.84,72.65c2.6,1.41,4.91,5.17,6.39,9.08l9.71,38.6c0,.2.9,4.18,5.9,8.51,2.27,2,5.72,5.32,8.74,8A18.93,18.93,0,0,1,1782.27,1078.54Z" />
        <path class="cls-11" d="M1720.27,1020.43l-2.19-18.44a7.36,7.36,0,0,0-3.22-5.08l-13.68-7.43c-1.55-.84-2.61.08-2.38,2L1701,1010a7.31,7.31,0,0,0,3.23,5.09l13.68,7.42c1.55.84,2.61-.07,2.37-2.05Z" />
        <path class="cls-11" d="M1638.37,976l-2.18-18.45a7.4,7.4,0,0,0-3.23-5.08L1619.29,945c-1.56-.84-2.62.08-2.39,2.05l2.19,18.44a7.43,7.43,0,0,0,3.23,5.09L1636,978c1.55.84,2.62-.07,2.38-2Z" />
        <path class="cls-11" d="M1693,1005.61l-2.19-18.44a7.37,7.37,0,0,0-3.23-5.08l-13.67-7.43c-1.55-.83-2.61.08-2.38,2.05l2.19,18.45a7.35,7.35,0,0,0,3.23,5.08l13.68,7.43c1.53.84,2.6-.08,2.37-2.06Z" />
        <path class="cls-11" d="M1665.68,990.8l-2.2-18.45a7.37,7.37,0,0,0-3.23-5.08l-13.67-7.43c-1.54-.83-2.61.09-2.38,2.06l2.2,18.44a7.35,7.35,0,0,0,3.21,5.09l13.69,7.42c1.54.84,2.6-.07,2.38-2.05Z" />
        <path class="cls-11" d="M1745.31,1037.36c1.26.68,2.09-.35,1.86-2.33l-4.08-19.46c-.84-2.31-2.2-4.53-3.46-5.21L1728,1004c-1.26-.68-2.09.37-1.86,2.34l2.2,18.44c.24,2,1.45,4.11,2.7,4.8l14.32,7.77Z" />
        <path class="cls-26" d="M1744.71,1002.71l59-29.08c2.6,1.41,4.9,5.18,6.38,9.07l-59,29.09C1749.62,1007.88,1747.31,1004.12,1744.71,1002.71Z" />
        <path class="cls-11" d="M1763,1036.27c-1.46-4-4.26-15.9-4.26-15.9s-1.6-3.09,2.34-5.06,37.13-18.44,41.54-20.74,5.37,1.95,5.37,1.95,2.11,8.73,3.78,14.61c1.56,5.43-1.73,6.45-1.73,6.45l-41.35,20.64S1764.5,1040.26,1763,1036.27Z" />
        <path class="cls-11" d="M1839,1069.16c.38,4.84-2,9-5.23,9.24s-6.24-3.46-6.62-8.3,2-9,5.23-9.24S1838.57,1064.31,1839,1069.16Z" />
        <path class="cls-11" d="M1804.79,1085.18c.39,4.85-2,9-5.23,9.24s-6.24-3.45-6.62-8.3,2-9,5.23-9.24S1804.41,1080.35,1804.79,1085.18Z" />
    </g>
    <g id="car07">
        <polygon class="cls-5" points="830.68 630 693.22 707.72 693.21 729.35 789.52 752.44 918.99 677.23 830.68 630" />
        <path class="cls-40" d="M757.59,617.27l58.8,29.46c3.36,1.69,5.09,6.5,4.21,13.44-.09.72-.2,1.42-.34,2.15l-58.79-29.47c.14-.72.26-1.44.35-2.14C762.68,623.76,761,619,757.59,617.27Z" />
        <path d="M797.75,684.56,739,655.09c-2.46-1.24-3.73-4.77-3.09-9.88,1-8.36,6.81-17.76,12.88-21L813.35,653c-6.07,3.25-17.64,13.36-18.69,21.71C794,679.79,795.29,683.33,797.75,684.56Z" />
        <path class="cls-6" d="M807.53,653.67c6.07-3.24,10.15.92,9.1,9.27s-6.82,17.76-12.89,21-10.13-.9-9.08-9.26S801.47,656.92,807.53,653.67Z" />
        <path class="cls-7" d="M804.78,675.62c2.73-1.46,5.34-5.68,5.8-9.44s-1.36-5.64-4.1-4.18-5.31,5.68-5.78,9.46,1.35,5.62,4.08,4.16Z" />
        <path class="cls-41" d="M806.89,627.74,748.1,598.27a2.91,2.91,0,0,0,2.65-.17c6.61-3.17,21.45-8.53,24.41-9.81,1.55-.68,2.71-.82,3.52-.42,20,9,39.18,19.64,58.79,29.47-.81-.4-2-.26-3.52.42-3,1.29-17.79,6.64-24.41,9.8A2.91,2.91,0,0,1,806.89,627.74Z" />
        <path class="cls-41" d="M741.25,574.36,800,603.83a3,3,0,0,0-2.89.26l-58.78-29.47A3,3,0,0,1,741.25,574.36Z" />
        <path class="cls-40" d="M668.47,664.88q29.4,14.72,58.79,29.47c3.36,1.68,5.08,6.49,4.22,13.44-.09.71-.21,1.42-.34,2.15l-58.79-29.48c.13-.71.25-1.43.34-2.14C673.56,671.38,671.83,666.56,668.47,664.88Z" />
        <path d="M708.48,732.26q-29.38-14.76-58.79-29.48c-2.46-1.23-3.73-4.77-3.1-9.88,1-8.35,6.82-17.76,12.89-21l64.85,28.89c-6.07,3.24-17.9,13.23-19,21.58C704.75,727.48,706,731,708.48,732.26Z" />
        <path class="cls-6" d="M718.27,701.36c6.07-3.24,10.14.92,9.09,9.28s-6.82,17.76-12.89,21-10.13-.92-9.09-9.27S712.2,704.61,718.27,701.36Z" />
        <path class="cls-7" d="M715.51,723.31c2.73-1.46,5.33-5.68,5.8-9.44s-1.36-5.64-4.08-4.18-5.33,5.69-5.8,9.45,1.35,5.62,4.08,4.17Z" />
        <path class="cls-20" d="M723,673.8l-58.78-29.47c3.74-2.22,5.84-8.16,5.95-8.48L729,665.32C728.84,665.64,726.76,671.57,723,673.8Z" />
        <polygon class="cls-42" points="743.48 632.78 684.69 603.3 738.37 574.62 797.15 604.09 743.48 632.78" />
        <polygon class="cls-20" points="728.96 665.32 670.16 635.85 678.25 612.33 737.04 641.8 728.96 665.32" />
        <path class="cls-20" d="M737,641.8l-58.79-29.47c1.51-3.89,3.82-7.64,6.44-9l58.79,29.48C740.87,634.16,738.55,637.91,737,641.8Z" />
        <path class="cls-43" d="M692.91,729.2q-29.42-14.73-58.79-29.47c-1-.5-1.51-1.83-1.26-3.77l58.8,29.47C691.4,727.36,691.91,728.7,692.91,729.2Z" />
        <path class="cls-44" d="M838.71,623.14c-.61,5.29-1,23.34-1,24.27-.41,3.32-2.87,7.14-5.49,8.55l-11.92,6.36c.14-.73.25-1.43.34-2.15,1.43-11.36-4.1-17-12.36-12.6s-16.11,17.21-17.54,28.59c-.09.7-.14,1.39-.18,2l-59.38,31.74c.13-.73.25-1.44.34-2.15,1.42-11.36-4.11-17-12.36-12.6s-16.11,17.2-17.54,28.57c-.08.71-.14,1.39-.18,2l-5.77,3.09c-2.61,1.4-4.39-.16-4-3.47.22-1.06,4.61-21.24,5.33-26.57s2.81-9.06,6.9-11.62c3-1.9,12.4-9.48,19.11-13.44,3.76-2.23,5.84-8.16,6-8.48L737,641.8c1.51-3.89,3.83-7.64,6.44-9l53.67-28.69c2.63-1.4,4.27.23,4.94,2.95L805,624.69c.05.23.83,4.63,4.52,2.87,6.62-3.16,21.45-8.51,24.41-9.8C837.93,616,839.34,617.86,838.71,623.14Z" />
        <path class="cls-11" d="M794.07,636.9a7.34,7.34,0,0,0,3.26-5.06L795,615.92c-.5-1.57-1.75-2.4-3.3-1.57l-14.73,7.87a7.39,7.39,0,0,0-3.26,5.07l-2.32,18.44c-.24,2,.81,2.88,2.37,2l20.36-10.87Z" />
        <path class="cls-11" d="M762,650.73l2.32-18.43c.23-2-.82-2.9-2.37-2.07l-14.74,7.88c-1.55.83-3.18,3.2-4.2,5.57l-7,20.93c-.24,2,.82,2.89,2.37,2.06l20.37-10.87a7.41,7.41,0,0,0,3.25-5.07Z" />
        <path class="cls-20" d="M691.66,725.43,632.86,696c.23-1.06,4.63-21.24,5.33-26.57s2.82-9.06,6.91-11.62c3-1.91,12.4-9.48,19.12-13.44L723,673.8c-6.71,4-16.08,11.54-19.11,13.44-4.09,2.56-6.19,6.29-6.9,11.62S691.88,724.37,691.66,725.43Z" />
        <path class="cls-11" d="M723.11,662.67c1.41-4.06,5.52-16,5.52-16s1.55-3.16-2.36-5.09-36.79-18.1-41.17-20.37-5.26,2.07-5.26,2.07S676.36,632,674.77,638c-1.48,5.54,1.78,6.51,1.78,6.51l41,20.27S721.72,666.73,723.11,662.67Z" />
        <path class="cls-16" d="M643.22,686.53c-.42,4.84,1.9,9,5.18,9.27s6.25-3.41,6.67-8.25-1.91-9-5.19-9.27S643.63,681.69,643.22,686.53Z" />
        <path class="cls-16" d="M677.27,702.77c-.42,4.85,1.9,9,5.17,9.27s6.26-3.4,6.67-8.25-1.9-9-5.18-9.26S677.68,697.94,677.27,702.77Z" />
    </g>
    <g id="car06">
        <polygon class="cls-5" points="211.14 808.97 73.67 886.68 73.66 908.31 169.98 931.4 299.44 856.19 211.14 808.97" />
        <path class="cls-45" d="M132.48,799.61q29.31,14.88,58.64,29.77c3.35,1.71,5,6.53,4.14,13.47-.09.71-.21,1.42-.35,2.15l-58.64-29.78c.14-.72.26-1.44.35-2.14C137.53,806.13,135.82,801.31,132.48,799.61Z" />
        <path d="M172.31,866.47l-58.64-29.78c-2.46-1.24-3.71-4.79-3-9.89,1.1-8.36,6.91-17.74,13-20.94l65.11,29.47c-6.08,3.22-18.37,12.89-19.46,21.24C168.59,861.67,169.84,865.22,172.31,866.47Z" />
        <path class="cls-6" d="M182.25,835.63c6.09-3.21,10.14,1,9.05,9.31s-6.93,17.73-13,20.95-10.12-1-9-9.32S176.17,838.84,182.25,835.63Z" />
        <path class="cls-7" d="M179.38,857.56c2.74-1.44,5.35-5.65,5.85-9.41s-1.33-5.64-4.07-4.19-5.35,5.65-5.85,9.41,1.33,5.64,4.07,4.19Z" />
        <path class="cls-34" d="M181.72,810.34l-58.64-29.78a2.86,2.86,0,0,0,2.65-.15c6.63-3.13,19.6-7.4,22.55-8.68,1.57-.67,2.72-.81,3.53-.4h0l58.64,29.78c-.8-.41-2-.28-3.52.39-3,1.28-15.93,5.56-22.56,8.69A2.92,2.92,0,0,1,181.72,810.34Z" />
        <path class="cls-45" d="M54.92,840.54l58.64,29.77c3.34,1.69,5.06,6.52,4.14,13.46-.1.71-.22,1.42-.35,2.14L58.71,856.14c.13-.72.26-1.43.35-2.15C60,847.05,58.26,842.23,54.92,840.54Z" />
        <path d="M94.74,907.39,36.1,877.62c-2.46-1.26-3.71-4.8-3-9.9,1.08-8.35,6.9-17.73,13-20.94l65,29.42c-6.08,3.21-18.29,12.95-19.38,21.3C91,902.6,92.28,906.14,94.74,907.39Z" />
        <path class="cls-6" d="M104.69,876.55c6.08-3.21,10.12,1,9,9.32s-6.91,17.72-13,20.94-10.13-1-9-9.31S98.61,879.76,104.69,876.55Z" />
        <path class="cls-7" d="M101.82,898.48c2.74-1.44,5.36-5.65,5.85-9.41s-1.33-5.64-4.07-4.19-5.35,5.65-5.84,9.42,1.32,5.63,4.06,4.18Z" />
        <polygon class="cls-34" points="105.63 821.72 47 791.95 113.47 756.87 172.11 786.64 105.63 821.72" />
        <path class="cls-36" d="M72.37,907.52S27.36,884.2,20.13,881s-4.47-8.93-4.47-8.93l23.89-70.62,58.64,29.77Z" />
        <path class="cls-35" d="M211.66,806.92c-.64,5.27-1.14,23.31-1.16,24.26-.44,3.32-2.91,7.13-5.53,8.51L194.91,845c.14-.73.26-1.44.35-2.15,1.49-11.36-4-17-12.3-12.67s-16.19,17.12-17.67,28.49c-.1.7-.16,1.39-.19,2.05l-47.75,25.19c.13-.72.25-1.43.35-2.14,1.48-11.36-4-17-12.3-12.67s-16.19,17.13-17.68,28.49c-.09.71-.16,1.39-.19,2.06L75.8,907.83c-2.63,1.39-4.4-.17-4-3.49l26.36-73.12c1.22-3.72,4.8-8.11,7.44-9.5l66.48-35.08c2.62-1.38,4.26.25,4.91,3l2.84,17.65c0,.23.81,4.64,4.51,2.91,6.63-3.13,19.6-7.41,22.56-8.69C210.92,799.77,212.32,801.64,211.66,806.92Z" />
        <path class="cls-11" d="M169.13,821.32a7.39,7.39,0,0,0,3.29-5.05l-2.3-15.93c-.49-1.57-1.74-2.41-3.28-1.59L145,810.29a7.37,7.37,0,0,0-3.29,5.06l-2.41,18.41c-.25,2,.8,2.9,2.36,2.07l27.5-14.51Z" />
        <path class="cls-11" d="M129.26,839.05l2.41-18.42c.26-2-.8-2.91-2.35-2.08l-21.87,11.53c-1.55.82-3.21,3.19-4.23,5.56l-7.1,20.89c-.26,2,.79,2.9,2.35,2.07L126,844.09a7.39,7.39,0,0,0,3.29-5Z" />
        <path class="cls-36" d="M98.19,831.22,39.55,801.45c1.22-3.73,4.8-8.12,7.45-9.5l58.63,29.77C103,823.11,99.41,827.5,98.19,831.22Z" />
        <path class="cls-16" d="M25.23,866.57c-1.35,4.66.11,9.18,3.26,10.1s6.8-2.12,8.15-6.79-.1-9.18-3.24-10.09S26.59,861.91,25.23,866.57Z" />
        <path class="cls-16" d="M58.56,883.07c-1.36,4.66.1,9.18,3.25,10.1s6.81-2.12,8.16-6.8-.11-9.17-3.25-10.09S59.91,878.4,58.56,883.07Z" />
        <path class="cls-11" d="M82.52,856.26l5.6-16s1.56-3.16-2.34-5.1-36.69-18.29-41.06-20.57-5.28,2-5.28,2-3.52,8.72-5.14,14.69c-1.51,5.54,1.74,6.53,1.74,6.53l40.88,20.47S81.09,860.32,82.52,856.26Z" />
    </g>
    <g id="building03">
        <polygon class="cls-17" points="617.93 1149.04 388.77 1267.18 388.73 1310.44 581.37 1356.62 831.21 1233.49 617.93 1149.04" />
        <polygon class="cls-16" points="388.77 1310.44 159.57 1194.61 159.57 404.61 388.77 520.44 388.77 1310.44" />
        <polygon class="cls-46" points="209.36 1166.15 189.72 1156.23 189.72 471.78 209.36 481.71 209.36 1166.15" />
        <polygon class="cls-46" points="246.68 1185.01 227.04 1175.08 227.04 490.64 246.68 500.56 246.68 1185.01" />
        <polygon class="cls-46" points="283.99 1203.86 264.35 1193.94 264.35 509.5 283.99 519.42 283.99 1203.86" />
        <polygon class="cls-46" points="321.3 1222.72 301.66 1212.8 301.66 528.35 321.3 538.28 321.3 1222.72" />
        <polygon class="cls-46" points="358.61 1241.58 338.97 1231.65 338.97 547.21 358.61 557.13 358.61 1241.58" />
        <polygon class="cls-47" points="388.73 1310.44 617.93 1194.61 617.93 404.61 388.73 520.44 388.73 1310.44" />
        <polygon class="cls-43" points="568.14 1166.15 587.77 1156.23 587.77 471.78 568.14 481.71 568.14 1166.15" />
        <polygon class="cls-43" points="530.83 1185.01 550.47 1175.08 550.47 490.64 530.83 500.56 530.83 1185.01" />
        <polygon class="cls-43" points="493.52 1203.86 513.15 1193.94 513.15 509.5 493.52 519.42 493.52 1203.86" />
        <polygon class="cls-43" points="456.2 1222.72 475.84 1212.8 475.84 528.35 456.2 538.28 456.2 1222.72" />
        <polygon class="cls-43" points="418.89 1241.58 438.53 1231.65 438.53 547.21 418.89 557.13 418.89 1241.58" />
        <polygon class="cls-48" points="389.49 286.53 159.57 405.18 388.91 521.56 617.93 405.18 389.49 286.53" />
    </g>
    <g id="house02">
        <polygon class="cls-17" points="1564.61 1197.88 1411.03 1257.79 1412.66 1282.71 1605.3 1328.89 1777.88 1267.33 1564.61 1197.88" />
        <polygon class="cls-18" points="1407.8 1159.72 1558.64 1099.59 1563.5 1222.58 1412.66 1282.71 1407.8 1159.72" />
        <polygon class="cls-19" points="1357.02 1002.66 1507.85 942.53 1435.82 998.24 1284.98 1058.38 1357.02 1002.66" />
        <polygon class="cls-16" points="1353.35 1029.41 1429.22 1173.64 1407.8 1159.72 1412.66 1282.71 1312.41 1217.61 1307.55 1094.62 1286.11 1080.7 1353.35 1029.41" />
        <polygon class="cls-20" points="1384.06 1201.78 1382.06 1151.35 1333.92 1120.09 1335.92 1170.52 1384.06 1201.78 1384.06 1201.78" />
        <polygon class="cls-19" points="1353.35 1029.41 1504.18 969.28 1580.05 1113.5 1429.22 1173.64 1353.35 1029.41" />
        <polygon class="cls-21" points="1356.09 980.38 1506.93 920.25 1596.23 1090.89 1445.39 1151.03 1356.09 980.38" />
        <polygon class="cls-22" points="1356.09 980.38 1445.39 1151.03 1438.26 1157.95 1357.02 1002.66 1284.98 1058.38 1276.86 1041.62 1356.09 980.38" />
    </g>
    <g id="building02">
        <polygon class="cls-17" points="1233.76 1472.51 1004.59 1590.65 1004.56 1633.91 1197.2 1680.09 1447.04 1556.96 1233.76 1472.51" />
        <polygon class="cls-48" points="1004.91 727.55 762.8 854.55 1004.55 985.94 1246.25 854.55 1004.91 727.55" />
        <polygon class="cls-47" points="1246.25 1502.45 1004.43 1633.93 1004.43 986.04 1246.25 854.55 1246.25 1502.45" />
        <polygon class="cls-43" points="1072.86 990.7 1033.49 1012.1 1033.49 1051.47 1072.86 1030.06 1072.86 990.7" />
        <polygon class="cls-43" points="1145.02 951.46 1105.66 972.86 1105.66 1012.23 1145.02 990.82 1145.02 951.46" />
        <polygon class="cls-43" points="1217.2 912.21 1177.83 933.62 1177.83 972.98 1217.2 951.58 1217.2 912.21" />
        <polygon class="cls-43" points="1072.86 1056.31 1033.49 1077.71 1033.49 1117.08 1072.86 1095.67 1072.86 1056.31" />
        <polygon class="cls-43" points="1145.02 1017.06 1105.66 1038.47 1105.66 1077.84 1145.02 1056.43 1145.02 1017.06" />
        <polygon class="cls-43" points="1217.2 977.82 1177.83 999.23 1177.83 1038.59 1217.2 1017.19 1217.2 977.82" />
        <polygon class="cls-43" points="1072.86 1126.84 1033.49 1148.24 1033.49 1187.61 1072.86 1166.2 1072.86 1126.84" />
        <polygon class="cls-43" points="1145.02 1087.6 1105.66 1109 1105.66 1148.37 1145.02 1126.96 1145.02 1087.6" />
        <polygon class="cls-43" points="1217.2 1048.35 1177.83 1069.76 1177.83 1109.12 1217.2 1087.72 1217.2 1048.35" />
        <polygon class="cls-43" points="1072.86 1197.37 1033.49 1218.77 1033.49 1258.14 1072.86 1236.73 1072.86 1197.37" />
        <polygon class="cls-43" points="1145.02 1158.12 1105.66 1179.53 1105.66 1218.89 1145.02 1197.49 1145.02 1158.12" />
        <polygon class="cls-43" points="1217.2 1118.88 1177.83 1140.29 1177.83 1179.66 1217.2 1158.25 1217.2 1118.88" />
        <polygon class="cls-43" points="1072.86 1269.54 1033.49 1290.94 1033.49 1330.31 1072.86 1308.91 1072.86 1269.54" />
        <polygon class="cls-43" points="1145.02 1230.29 1105.66 1251.7 1105.66 1291.07 1145.02 1269.66 1145.02 1230.29" />
        <polygon class="cls-43" points="1217.2 1191.05 1177.83 1212.46 1177.83 1251.83 1217.2 1230.42 1217.2 1191.05" />
        <polygon class="cls-43" points="1072.86 1338.43 1033.49 1359.83 1033.49 1399.2 1072.86 1377.79 1072.86 1338.43" />
        <polygon class="cls-43" points="1145.02 1299.18 1105.66 1320.59 1105.66 1359.96 1145.02 1338.55 1145.02 1299.18" />
        <polygon class="cls-43" points="1217.2 1259.94 1177.83 1281.35 1177.83 1320.72 1217.2 1299.31 1217.2 1259.94" />
        <polygon class="cls-43" points="1072.86 1404.04 1033.49 1425.44 1033.49 1464.81 1072.86 1443.4 1072.86 1404.04" />
        <polygon class="cls-43" points="1145.02 1364.79 1105.66 1386.2 1105.66 1425.57 1145.02 1404.16 1145.02 1364.79" />
        <polygon class="cls-43" points="1217.2 1325.56 1177.83 1346.96 1177.83 1386.33 1217.2 1364.92 1217.2 1325.56" />
        <polygon class="cls-43" points="1072.86 1468.01 1033.49 1489.41 1033.49 1528.78 1072.86 1507.37 1072.86 1468.01" />
        <polygon class="cls-43" points="1145.02 1428.76 1105.66 1450.17 1105.66 1489.54 1145.02 1468.13 1145.02 1428.76" />
        <polygon class="cls-43" points="1217.2 1389.53 1177.83 1410.93 1177.83 1450.29 1217.2 1428.89 1217.2 1389.53" />
        <polygon class="cls-16" points="762.8 1502.45 1004.61 1633.93 1004.61 986.04 762.8 854.55 762.8 1502.45" />
        <polygon class="cls-46" points="936.19 990.7 975.55 1012.1 975.55 1051.47 936.19 1030.06 936.19 990.7" />
        <polygon class="cls-46" points="864.02 951.46 903.38 972.86 903.38 1012.23 864.02 990.82 864.02 951.46" />
        <polygon class="cls-46" points="791.85 912.21 831.21 933.62 831.21 972.98 791.85 951.58 791.85 912.21" />
        <polygon class="cls-46" points="936.19 1056.31 975.55 1077.71 975.55 1117.08 936.19 1095.67 936.19 1056.31" />
        <polygon class="cls-46" points="864.02 1017.06 903.38 1038.47 903.38 1077.84 864.02 1056.43 864.02 1017.06" />
        <polygon class="cls-46" points="791.85 977.82 831.21 999.23 831.21 1038.59 791.85 1017.19 791.85 977.82" />
        <polygon class="cls-46" points="936.19 1126.84 975.55 1148.24 975.55 1187.61 936.19 1166.2 936.19 1126.84" />
        <polygon class="cls-46" points="864.02 1087.6 903.38 1109 903.38 1148.37 864.02 1126.96 864.02 1087.6" />
        <polygon class="cls-46" points="791.85 1048.35 831.21 1069.76 831.21 1109.12 791.85 1087.72 791.85 1048.35" />
        <polygon class="cls-46" points="936.19 1197.37 975.55 1218.77 975.55 1258.14 936.19 1236.73 936.19 1197.37" />
        <polygon class="cls-46" points="864.02 1158.12 903.38 1179.53 903.38 1218.89 864.02 1197.49 864.02 1158.12" />
        <polygon class="cls-46" points="791.85 1118.88 831.21 1140.29 831.21 1179.66 791.85 1158.25 791.85 1118.88" />
        <polygon class="cls-46" points="936.19 1269.54 975.55 1290.94 975.55 1330.31 936.19 1308.91 936.19 1269.54" />
        <polygon class="cls-46" points="864.02 1230.29 903.38 1251.7 903.38 1291.07 864.02 1269.66 864.02 1230.29" />
        <polygon class="cls-46" points="791.85 1191.05 831.21 1212.46 831.21 1251.83 791.85 1230.42 791.85 1191.05" />
        <polygon class="cls-46" points="936.19 1338.43 975.55 1359.83 975.55 1399.2 936.19 1377.79 936.19 1338.43" />
        <polygon class="cls-46" points="864.02 1299.18 903.38 1320.59 903.38 1359.96 864.02 1338.55 864.02 1299.18" />
        <polygon class="cls-46" points="791.85 1259.94 831.21 1281.35 831.21 1320.72 791.85 1299.31 791.85 1259.94" />
        <polygon class="cls-46" points="936.19 1404.04 975.55 1425.44 975.55 1464.81 936.19 1443.4 936.19 1404.04" />
        <polygon class="cls-46" points="864.02 1364.79 903.38 1386.2 903.38 1425.57 864.02 1404.16 864.02 1364.79" />
        <polygon class="cls-46" points="791.85 1325.56 831.21 1346.96 831.21 1386.33 791.85 1364.92 791.85 1325.56" />
        <polygon class="cls-46" points="936.19 1468.01 975.55 1489.41 975.55 1528.78 936.19 1507.37 936.19 1468.01" />
        <polygon class="cls-46" points="864.02 1428.76 903.38 1450.17 903.38 1489.54 864.02 1468.13 864.02 1428.76" />
        <polygon class="cls-46" points="791.85 1389.53 831.21 1410.93 831.21 1450.29 791.85 1428.89 791.85 1389.53" />
    </g>
    <g id="car05">
        <polygon class="cls-5" points="1489.7 1551.06 1353.91 1628.77 1353.89 1650.4 1450.21 1673.49 1588.01 1596.61 1489.7 1551.06" />
        <path class="cls-49" d="M1484,1565.63q-29.28-15-58.55-30c3.35,1.72,5,6.54,4.11,13.48-.1.71-.22,1.42-.36,2.14l58.54,30c.15-.72.27-1.44.36-2.15C1489,1572.16,1487.31,1567.33,1484,1565.63Z" />
        <path d="M1406.46,1573.34l58.55,30c-2.45-1.26-3.69-4.8-3-9.9,1.11-8.35,13.21-18.14,19.3-21.33l-64.79-29.53c-6.09,3.19-11.94,12.56-13.06,20.91C1402.77,1568.54,1404,1572.08,1406.46,1573.34Z" />
        <path class="cls-6" d="M1475.06,1572.48c-6.1,3.2-12,12.56-13.06,20.91s2.92,12.52,9,9.33,11.93-12.55,13-20.89S1481.15,1569.3,1475.06,1572.48Z" />
        <path class="cls-7" d="M1472.13,1594.41c-2.74,1.43-4.56-.44-4.06-4.21s3.14-8,5.88-9.4,4.55.45,4,4.2-3.13,8-5.87,9.41Z" />
        <path class="cls-14" d="M1499.09,1539.63q-29.28-15-58.55-29.94c-.8-.41-2-.28-3.52.38-3,1.27-11.66,3.27-18.29,6.38l55.3,31.94c6.64-3.11,18.58-7.1,21.54-8.37C1497.13,1539.36,1498.29,1539.23,1499.09,1539.63Z" />
        <path class="cls-13" d="M1468,1522.59q-29.28-15-58.55-29.94a3,3,0,0,0-2.88.22l58.55,30A3.05,3.05,0,0,1,1468,1522.59Z" />
        <path class="cls-49" d="M1394.45,1612.5l-58.54-30c3.34,1.72,5,6.54,4.1,13.48-.1.72-.23,1.43-.36,2.14l58.55,29.95c.14-.72.26-1.43.36-2.14C1399.48,1619,1397.8,1614.22,1394.45,1612.5Z" />
        <path d="M1316.82,1620.3l58.54,29.94c-2.45-1.25-3.69-4.8-3-9.9,1.12-8.34,13.16-18.16,19.25-21.36l-64.74-29.48c-6.08,3.18-11.94,12.55-13.06,20.9C1313.11,1615.49,1314.36,1619,1316.82,1620.3Z" />
        <path class="cls-6" d="M1385.41,1619.44c-6.09,3.19-12,12.56-13.07,20.9s2.93,12.54,9,9.34,11.94-12.55,13.05-20.9S1391.5,1616.25,1385.41,1619.44Z" />
        <path class="cls-7" d="M1382.48,1641.36c-2.75,1.44-4.57-.44-4.07-4.19s3.14-8,5.89-9.41,4.55.45,4,4.21-3.13,8-5.87,9.39Z" />
        <polygon class="cls-14" points="1465.08 1522.82 1406.53 1492.87 1352.62 1521.11 1411.17 1551.05 1465.08 1522.82" />
        <path class="cls-15" d="M1346.1,1530.1c1.54-3.89,3.89-7.61,6.52-9l58.55,29.94c-2.62,1.39-5,5.11-6.51,9l-8.29,23.46-58.55-30Z" />
        <path class="cls-13" d="M1295.08,1620.37l58.55,30c-1-.51-1.49-1.85-1.23-3.79l-58.55-30C1293.59,1618.52,1294.09,1619.86,1295.08,1620.37Z" />
        <path class="cls-15" d="M1358,1620l-58.55-30c-.76,5.33-5.32,25.46-5.56,26.52l58.55,30C1352.64,1645.48,1357.19,1625.34,1358,1620Z" />
        <path class="cls-14" d="M1396.37,1583.5l-58.55-30c-.12.31-2.24,6.24-6,8.43-6.74,3.9-22.36,14.63-25.41,16.51-4.11,2.53-6.24,6.24-7,11.57l58.55,30c.75-5.33,2.88-9,7-11.57,3-1.87,18.66-12.61,25.4-16.51C1394.13,1589.73,1396.27,1583.81,1396.37,1583.5Z" />
        <path class="cls-13" d="M1358,1620c-.77,5.33-5.32,25.47-5.56,26.52-.44,3.31,1.33,4.88,3.95,3.51l12-6.28q.06-1,.21-2.07c1.51-11.34,9.46-24.07,17.75-28.4s13.78,1.34,12.27,12.69c-.1.71-.22,1.42-.36,2.14l59.64-31.24c0-.67.11-1.35.2-2.06,1.52-11.36,9.47-24.09,17.77-28.43s13.77,1.35,12.25,12.7c-.09.71-.21,1.43-.36,2.15l5.8-3c2.62-1.36,5.11-5.16,5.55-8.47,0-1,.58-19,1.24-24.26s-.72-7.15-4.72-5.44c-3,1.27-11.66,3.27-18.3,6.38-3.71,1.72-4.46-2.68-4.49-2.93l-2.79-17.66c-.65-2.73-2.29-4.37-4.91-3l-53.91,28.23c-2.62,1.39-5,5.11-6.51,9l-8.29,23.46c-.1.31-2.24,6.23-6,8.43-6.74,3.9-22.35,14.64-25.4,16.51C1360.84,1611,1358.71,1614.68,1358,1620Z" />
        <path class="cls-11" d="M1438.76,1564.33l2.46-18.41a7.45,7.45,0,0,1,3.31-5.05l14.79-7.75c1.56-.81,2.8,0,3.29,1.59l2.25,15.94a7.36,7.36,0,0,1-3.3,5l-20.45,10.71c-1.56.81-2.61-.12-2.35-2.08Z" />
        <path class="cls-11" d="M1405.6,1585c-1.56.82-2.61-.11-2.35-2.08l7.18-20.88c1-2.36,2.68-4.72,4.23-5.54l14.8-7.75c1.56-.81,2.6.12,2.35,2.09l-2.47,18.4a7.35,7.35,0,0,1-3.29,5L1405.6,1585Z" />
        <path class="cls-11" d="M1392.61,1576.47c1.44-4.06,5.65-16,5.65-16s1.57-3.15-2.32-5.11-36.65-18.4-41-20.69-5.28,2-5.28,2-3.55,8.7-5.19,14.67c-1.52,5.53,1.73,6.54,1.73,6.54l40.81,20.59S1391.18,1580.51,1392.61,1576.47Z" />
        <path class="cls-16" d="M1301.93,1610.11c-.45,4.85,1.83,9,5.09,9.31s6.3-3.36,6.74-8.2-1.83-9-5.09-9.29S1302.38,1605.28,1301.93,1610.11Z" />
        <path class="cls-16" d="M1335.84,1626.64c-.45,4.84,1.83,9,5.1,9.31s6.29-3.37,6.75-8.2-1.84-9-5.11-9.31S1336.29,1621.81,1335.84,1626.64Z" />
    </g>
    <g id="car04">
        <polygon class="cls-5" points="1355.44 1774.38 1192.11 1866.38 1192.09 1888.01 1288.41 1911.1 1453.75 1819.94 1355.44 1774.38" />
        <path class="cls-50" d="M1280.58,1763.62l58.69,29.67c3.36,1.69,5.06,6.51,4.17,13.46-.1.7-.22,1.43-.36,2.14l-58.68-29.66c.14-.73.26-1.46.35-2.15C1285.64,1770.13,1283.93,1765.31,1280.58,1763.62Z" />
        <path class="cls-30" d="M1349.69,1763.16,1291,1733.48a4.69,4.69,0,0,0,3,.24c2.09-.38,5.16-.53,7.92-1a5.06,5.06,0,0,1,3.07.2l58.69,29.68a4.9,4.9,0,0,0-3.07-.21c-2.76.44-5.84.59-7.92,1A4.92,4.92,0,0,1,1349.69,1763.16Z" />
        <path d="M1320.14,1831.6l-58.69-29.67c-2.47-1.23-3.72-4.78-3.07-9.88,1.09-8.36,6.89-17.74,13-21l65,29.26c-6.09,3.23-18.21,13-19.29,21.36C1316.42,1826.82,1317.68,1830.36,1320.14,1831.6Z" />
        <path class="cls-6" d="M1330,1800.75c6.08-3.22,10.14.94,9.06,9.29s-6.89,17.75-13,21-10.13-1-9.05-9.3S1324,1804,1330,1800.75Z" />
        <path class="cls-7" d="M1327.2,1822.68c2.74-1.44,5.35-5.67,5.83-9.42s-1.34-5.64-4.07-4.18-5.34,5.66-5.83,9.42,1.34,5.64,4.07,4.18Z" />
        <path class="cls-31" d="M1286.54,1695q29.34,14.83,58.69,29.66a3.09,3.09,0,0,0-2.89.26l-58.69-29.67A3.05,3.05,0,0,1,1286.54,1695Z" />
        <path class="cls-50" d="M1183.78,1814.9l58.7,29.68c3.36,1.69,5.07,6.51,4.17,13.46-.09.7-.21,1.42-.35,2.15l-58.69-29.68c.13-.72.26-1.44.35-2.14C1188.85,1821.42,1187.14,1816.61,1183.78,1814.9Z" />
        <path d="M1223.64,1882.74l-58.7-29.66c-2.46-1.25-3.72-4.8-3.06-9.9,1.08-8.36,6.88-17.74,12.95-21l63.86,28.75c-6.08,3.23-17,13.53-18.12,21.88C1219.92,1878,1221.17,1881.5,1223.64,1882.74Z" />
        <path class="cls-6" d="M1233.53,1851.89c6.07-3.23,10.13.95,9,9.3s-6.88,17.74-12.95,21-10.13-1-9.06-9.3S1227.45,1855.11,1233.53,1851.89Z" />
        <path class="cls-7" d="M1230.7,1873.82c2.73-1.44,5.34-5.65,5.83-9.42s-1.34-5.64-4.08-4.19-5.34,5.67-5.83,9.44,1.34,5.62,4.08,4.17Z" />
        <polygon class="cls-30" points="1207.77 1796.18 1149.09 1766.5 1283.65 1695.2 1342.34 1724.87 1207.77 1796.18" />
        <path class="cls-32" d="M1191.85,1887.87l-58.7-29.65c-1-.51-1.49-1.85-1.24-3.79.45-3.6,8.94-72.1,9.58-77.1s5-9.43,7.59-10.83l58.69,29.68c-2.63,1.39-6.94,5.8-7.59,10.82s-9.13,73.5-9.57,77.1C1190.35,1886,1190.86,1887.38,1191.85,1887.87Z" />
        <path class="cls-31" d="M1365.39,1767.8c-.24,5.7-1.08,23.34-1.12,24.27-.42,3.32-2.9,7.14-5.52,8.52l-15.67,8.3c.14-.71.26-1.44.36-2.14,1.47-11.36-4-17-12.32-12.65s-16.16,17.15-17.63,28.52c-.09.7-.16,1.39-.19,2.06l-67,35.51c.14-.73.26-1.45.35-2.15,1.47-11.37-4.05-17-12.32-12.66s-16.16,17.17-17.62,28.53c-.1.7-.17,1.39-.2,2l-21.93,11.63c-2.62,1.39-4.4-.17-4-3.49.44-3.6,8.93-72.1,9.57-77.1s5-9.43,7.59-10.82l134.57-71.31c2.62-1.39,4.28.23,4.93,3l.94,32.64c0,.19-.1,3.75,4.51,2.91,2.08-.39,5.16-.54,7.92-1C1363.88,1761.89,1365.59,1762.8,1365.39,1767.8Z" />
        <path class="cls-11" d="M1282.1,1787.62l2.38-18.43c.25-2-.81-2.89-2.36-2.07l-13.75,7.29a7.31,7.31,0,0,0-3.27,5l-2.38,18.42c-.25,2,.8,2.9,2.36,2.07l13.75-7.28a7.37,7.37,0,0,0,3.27-5.05Z" />
        <path class="cls-11" d="M1254.65,1802.16l2.38-18.42c.25-2-.8-2.9-2.36-2.07l-13.75,7.28a7.37,7.37,0,0,0-3.27,5.06l-2.37,18.42c-.26,2,.8,2.9,2.35,2.06l13.75-7.28a7.35,7.35,0,0,0,3.27-5Z" />
        <path class="cls-11" d="M1309.55,1773.07l2.37-18.41c.26-2-.8-2.91-2.35-2.08l-13.76,7.29a7.35,7.35,0,0,0-3.27,5.05l-2.37,18.43c-.25,2,.8,2.88,2.35,2.06l13.76-7.29a7.36,7.36,0,0,0,3.27-5Z" />
        <path class="cls-11" d="M1227.21,1816.7l2.37-18.41c.26-2-.79-2.92-2.35-2.09l-13.75,7.3a7.31,7.31,0,0,0-3.27,5l-2.38,18.43c-.25,2,.8,2.88,2.36,2.06l13.75-7.29a7.38,7.38,0,0,0,3.27-5Z" />
        <path class="cls-11" d="M1333.84,1763.52c1.26-.68,2.5-2.81,2.75-4.78l.49-17.42c-.37-1.64-1.34-2.61-2.59-2l-11.76,6.23c-1.26.66-2.49,2.81-2.74,4.78l-2.37,18.41c-.26,2,.56,3,1.82,2.37l14.4-7.64Z" />
        <path class="cls-11" d="M1192.37,1827.13c1.19-5.77,2.36-16.13,2.36-16.13a5.33,5.33,0,0,0-3.16-5.82c-4-1.87-36.88-16.71-41.35-18.9s-5.31,2.08-5.31,2.08-1.38,8.83-1.91,14.82c-.5,5.64,1.89,6.41,1.89,6.41l41.84,19.63S1191.51,1831.29,1192.37,1827.13Z" />
        <path class="cls-16" d="M1139.74,1845c-.43,4.84,1.87,9,5.15,9.29s6.27-3.4,6.7-8.23-1.88-9-5.15-9.28S1140.17,1840.2,1139.74,1845Z" />
        <path class="cls-16" d="M1173.67,1862.16c-.43,4.85,1.87,9,5.15,9.29s6.27-3.39,6.7-8.24-1.87-9-5.15-9.28S1174.1,1857.33,1173.67,1862.16Z" />
    </g>
    <g id="car03">
        <polygon class="cls-5" points="1021.94 1808.87 886.14 1886.59 886.13 1908.22 982.45 1931.31 1120.25 1854.43 1021.94 1808.87" />
        <path class="cls-51" d="M1004.39,1831.87l-58.34-30.35c3.33,1.74,5,6.58,4,13.52-.1.69-.22,1.4-.38,2.13l58.35,30.36c.15-.73.27-1.44.37-2.15C1009.38,1838.45,1007.72,1833.61,1004.39,1831.87Z" />
        <path d="M926.88,1838.42l58.34,30.35c-2.45-1.27-3.66-4.83-3-9.92,1.18-8.35,13.92-17.62,20-20.77l-65.18-30.4c-6.12,3.15-12,12.47-13.2,20.81C923.21,1833.59,924.43,1837.15,926.88,1838.42Z" />
        <path class="cls-6" d="M995.46,1838c-6.11,3.15-12,12.47-13.19,20.82s2.83,12.54,9,9.38,12-12.46,13.2-20.79S1001.58,1834.88,995.46,1838Z" />
        <path class="cls-7" d="M992.39,1859.94c-2.76,1.41-4.56-.46-4-4.23s3.19-8,5.95-9.37,4.55.48,4,4.24-3.18,7.94-5.93,9.36Z" />
        <path class="cls-26" d="M1014.48,1776.09l-58.35-30.35a4.43,4.43,0,0,0-4.08.2l58.34,30.34A4.48,4.48,0,0,1,1014.48,1776.09Z" />
        <path class="cls-51" d="M926.43,1872l-58.34-30.34c3.33,1.74,5,6.58,4,13.51-.1.7-.23,1.41-.38,2.14l58.35,30.35c.15-.72.27-1.44.37-2.14C931.42,1878.6,929.77,1873.77,926.43,1872Z" />
        <path d="M848.91,1878.57l58.34,30.35c-2.45-1.27-3.67-4.82-3-9.92,1.17-8.33,14.07-17.48,20.18-20.64l-65.32-30.52c-6.11,3.15-12,12.48-13.21,20.82C845.24,1873.75,846.46,1877.31,848.91,1878.57Z" />
        <path class="cls-6" d="M917.5,1878.19c-6.11,3.15-12,12.48-13.2,20.81s2.84,12.55,9,9.39,12-12.45,13.2-20.8S923.62,1875,917.5,1878.19Z" />
        <path class="cls-7" d="M914.42,1900.09c-2.76,1.42-4.55-.47-4-4.22s3.19-7.95,6-9.37,4.55.47,4,4.24-3.18,7.92-5.94,9.35Z" />
        <polygon class="cls-27" points="1010.39 1776.28 952.05 1745.94 885.23 1780.36 943.57 1810.69 1010.39 1776.28" />
        <path class="cls-28" d="M878.65,1789.29c1.56-3.86,3.94-7.58,6.58-8.93l58.34,30.33c-2.63,1.36-5,5.08-6.57,9l-8.45,23.4-58.34-30.35Z" />
        <path class="cls-26" d="M891.79,1878.3c-.79,5.32-5.48,25.43-5.73,26.49-.46,3.31,1.3,4.89,3.93,3.53l10.11-5.2c0-.67.11-1.36.21-2,1.6-11.36,9.64-24,18-28.33s13.77,1.45,12.17,12.8c-.1.7-.22,1.42-.37,2.14l48-24.71c.05-.68.13-1.36.22-2.07,1.6-11.35,9.64-24,18-28.31s13.77,1.44,12.17,12.79c-.1.71-.22,1.42-.37,2.15l11.78-6.07c2.65-1.37,5.16-5.15,5.62-8.46l-9.19-54.18c-.33-2.89-3.2-3.9-5.85-2.54l-66.82,34.41c-2.63,1.36-5,5.08-6.57,9l-8.45,23.4c-.11.31-2.29,6.22-6.07,8.39-6.77,3.84-20.55,13.5-23.61,15.36C894.75,1869.28,892.58,1873,891.79,1878.3Z" />
        <path class="cls-11" d="M977.94,1822.63l2.58-18.38a7.39,7.39,0,0,1,3.34-5l22-11.33c1.56-.8,2.79,0,3.28,1.62l2.13,16a7.32,7.32,0,0,1-3.34,5l-27.64,14.25c-1.56.8-2.61-.14-2.33-2.11Z" />
        <path class="cls-11" d="M936.9,1847.08c-1.57.8-2.62-.13-2.34-2.1l7.32-20.83c1-2.35,2.71-4.7,4.27-5.5l22-11.32c1.56-.8,2.6.14,2.33,2.1l-2.58,18.4a7.46,7.46,0,0,1-3.33,5l-27.65,14.24Z" />
        <path class="cls-27" d="M828.92,1878.24l58.34,30.35c-1-.51-1.47-1.86-1.2-3.8l-58.34-30.35C827.45,1876.37,827.93,1877.72,828.92,1878.24Z" />
        <path class="cls-28" d="M891.79,1878.3,833.45,1848c-.8,5.32-5.48,25.42-5.73,26.48l58.34,30.35C886.31,1903.73,891,1883.62,891.79,1878.3Z" />
        <path class="cls-27" d="M928.55,1843l-58.34-30.35c-.12.3-2.29,6.22-6.07,8.39-6.77,3.85-20.56,13.5-23.62,15.37-4.11,2.48-6.28,6.19-7.07,11.51l58.34,30.34c.79-5.31,3-9,7.08-11.51,3.06-1.86,16.84-11.52,23.61-15.36C926.26,1849.26,928.44,1843.35,928.55,1843Z" />
        <path class="cls-16" d="M836.44,1868.25c-.48,4.84,1.77,9,5,9.35s6.31-3.32,6.79-8.15-1.77-9-5-9.34S836.93,1863.42,836.44,1868.25Z" />
        <path class="cls-16" d="M870.24,1885c-.48,4.83,1.77,9,5,9.34s6.31-3.32,6.79-8.15-1.76-9-5-9.35S870.73,1880.18,870.24,1885Z" />
        <path class="cls-11" d="M925.08,1835c1.47-4,5.77-16,5.77-16s1.59-3.16-2.3-5.14-36.51-18.65-40.84-21-5.31,2-5.31,2-3.61,8.69-5.28,14.64c-1.56,5.52,1.68,6.55,1.68,6.55L919.47,1837S923.63,1839,925.08,1835Z" />
    </g>
    <g id="building01">
        <polygon class="cls-17" points="2000 1864.82 1925.41 1835.28 1696.24 1953.42 1696.21 1996.68 1712.36 2000 1974.69 2000 2000 1988.08 2000 1864.82" />
        <polygon class="cls-16" points="1696.21 1996.68 1452.86 1876.06 1452.86 1225.94 1694.55 1349.45 1696.21 1996.68" />
        <polygon class="cls-46" points="1663.78 1381.75 1484.57 1292.67 1484.57 1274.39 1663.78 1363.46 1663.78 1381.75" />
        <polygon class="cls-46" points="1663.78 1421.98 1484.57 1332.9 1484.57 1314.61 1663.78 1403.69 1663.78 1421.98" />
        <polygon class="cls-46" points="1663.78 1462.21 1484.57 1373.13 1484.57 1354.85 1663.78 1443.93 1663.78 1462.21" />
        <polygon class="cls-46" points="1663.78 1502.44 1484.57 1413.37 1484.57 1395.08 1663.78 1484.16 1663.78 1502.44" />
        <polygon class="cls-46" points="1663.78 1542.68 1484.57 1453.6 1484.57 1435.31 1663.78 1524.39 1663.78 1542.68" />
        <polygon class="cls-46" points="1663.78 1582.91 1484.57 1493.83 1484.57 1475.55 1663.78 1564.62 1663.78 1582.91" />
        <polygon class="cls-46" points="1663.78 1623.14 1484.57 1534.07 1484.57 1515.78 1663.78 1604.86 1663.78 1623.14" />
        <polygon class="cls-46" points="1663.78 1663.38 1484.57 1574.3 1484.57 1556.01 1663.78 1645.09 1663.78 1663.38" />
        <polygon class="cls-46" points="1663.78 1703.61 1484.57 1614.53 1484.57 1596.24 1663.78 1685.32 1663.78 1703.61" />
        <polygon class="cls-46" points="1663.78 1743.85 1484.57 1654.77 1484.57 1636.48 1663.78 1725.56 1663.78 1743.85" />
        <polygon class="cls-46" points="1663.78 1784.08 1484.57 1695 1484.57 1676.71 1663.78 1765.79 1663.78 1784.08" />
        <polygon class="cls-46" points="1663.78 1824.31 1484.57 1735.23 1484.57 1716.94 1663.78 1806.02 1663.78 1824.31" />
        <polygon class="cls-46" points="1663.78 1864.54 1484.57 1775.46 1484.57 1757.17 1663.78 1846.25 1663.78 1864.54" />
        <polygon class="cls-46" points="1663.78 1904.78 1484.57 1815.69 1484.57 1797.41 1663.78 1886.49 1663.78 1904.78" />
        <polygon class="cls-47" points="1696.21 1996.66 1938.86 1876.06 1938.86 1225.94 1694.55 1346.55 1696.21 1996.66" />
        <polygon class="cls-43" points="1727.93 1381.75 1907.15 1292.67 1907.15 1274.39 1727.93 1363.46 1727.93 1381.75" />
        <polygon class="cls-43" points="1727.93 1421.98 1907.15 1332.9 1907.15 1314.61 1727.93 1403.69 1727.93 1421.98" />
        <polygon class="cls-43" points="1727.93 1462.21 1907.15 1373.13 1907.15 1354.85 1727.93 1443.93 1727.93 1462.21" />
        <polygon class="cls-43" points="1727.93 1502.44 1907.15 1413.37 1907.15 1395.08 1727.93 1484.16 1727.93 1502.44" />
        <polygon class="cls-43" points="1727.93 1542.68 1907.15 1453.6 1907.15 1435.31 1727.93 1524.39 1727.93 1542.68" />
        <polygon class="cls-43" points="1727.93 1582.91 1907.15 1493.83 1907.15 1475.55 1727.93 1564.62 1727.93 1582.91" />
        <polygon class="cls-43" points="1727.93 1623.14 1907.15 1534.07 1907.15 1515.78 1727.93 1604.86 1727.93 1623.14" />
        <polygon class="cls-43" points="1727.93 1663.38 1907.15 1574.3 1907.15 1556.01 1727.93 1645.09 1727.93 1663.38" />
        <polygon class="cls-43" points="1727.93 1703.61 1907.15 1614.53 1907.15 1596.24 1727.93 1685.32 1727.93 1703.61" />
        <polygon class="cls-43" points="1727.93 1743.85 1907.15 1654.77 1907.15 1636.48 1727.93 1725.56 1727.93 1743.85" />
        <polygon class="cls-43" points="1727.93 1784.08 1907.15 1695 1907.15 1676.71 1727.93 1765.79 1727.93 1784.08" />
        <polygon class="cls-43" points="1727.93 1824.31 1907.15 1735.23 1907.15 1716.94 1727.93 1806.02 1727.93 1824.31" />
        <polygon class="cls-43" points="1727.93 1864.54 1907.15 1775.46 1907.15 1757.17 1727.93 1846.25 1727.93 1864.54" />
        <polygon class="cls-43" points="1727.93 1904.78 1907.15 1815.69 1907.15 1797.41 1727.93 1886.49 1727.93 1904.78" />
        <polygon class="cls-48" points="1694.88 1109.82 1452.86 1225.94 1694.55 1349.45 1938.86 1225.94 1694.88 1109.82" />
    </g>
    <g id="car02">
        <polygon class="cls-5" points="349.22 1368.33 276.62 1418.74 276.6 1440.37 351.25 1463.46 440.73 1413.54 349.22 1368.33" />
        <path class="cls-29" d="M223.67,1321,165,1350.69c-3.35,1.69-5.06,6.52-4.17,13.47.09.69.22,1.42.36,2.14l58.68-29.67c-.14-.72-.26-1.45-.35-2.14C218.61,1327.53,220.32,1322.72,223.67,1321Z" />
        <path class="cls-30" d="M154.56,1320.55l58.69-29.66a4.77,4.77,0,0,1-3,.23c-2.09-.38-5.17-.53-7.92-1a5.06,5.06,0,0,0-3.07.2L140.54,1320a5,5,0,0,1,3.07-.21c2.75.44,5.84.6,7.92,1A4.89,4.89,0,0,0,154.56,1320.55Z" />
        <path d="M184.11,1389l58.69-29.66c2.46-1.24,3.72-4.79,3.06-9.89-1.07-8.36-6.88-17.74-13-21l-65,29.27c6.09,3.22,18.21,13,19.29,21.35C187.83,1384.23,186.57,1387.76,184.11,1389Z" />
        <path class="cls-6" d="M174.22,1358.15c-6.08-3.22-10.14.95-9.05,9.29s6.87,17.75,13,21,10.13-.94,9-9.3S180.29,1361.38,174.22,1358.15Z" />
        <path class="cls-7" d="M177.05,1380.09c-2.74-1.45-5.35-5.67-5.83-9.43s1.34-5.64,4.08-4.18,5.33,5.67,5.82,9.43-1.34,5.63-4.07,4.18Z" />
        <path class="cls-30" d="M217.71,1252.35,159,1282a3.07,3.07,0,0,1,2.88.26l58.69-29.67A3,3,0,0,0,217.71,1252.35Z" />
        <path class="cls-29" d="M320.46,1372.3,261.77,1402c-3.36,1.7-5.07,6.51-4.18,13.46.1.7.22,1.42.36,2.15l58.69-29.67c-.13-.73-.26-1.45-.35-2.15C315.39,1378.82,317.11,1374,320.46,1372.3Z" />
        <path d="M280.61,1440.15l58.7-29.67c2.46-1.25,3.71-4.79,3.06-9.89-1.08-8.36-6.88-17.75-12.95-21l-63.86,28.76c6.08,3.23,17,13.52,18.11,21.87C284.33,1435.35,283.08,1438.9,280.61,1440.15Z" />
        <path class="cls-6" d="M270.72,1409.29c-6.07-3.22-10.14,1-9.05,9.31s6.88,17.73,12.95,21,10.13-1,9.05-9.31S276.8,1412.51,270.72,1409.29Z" />
        <path class="cls-7" d="M273.55,1431.23c-2.73-1.45-5.34-5.66-5.83-9.43s1.34-5.64,4.08-4.19,5.34,5.67,5.83,9.44-1.35,5.63-4.08,4.18Z" />
        <polygon class="cls-30" points="296.48 1353.58 355.16 1323.91 220.59 1252.6 161.9 1282.27 296.48 1353.58" />
        <path class="cls-31" d="M312.4,1445.28l58.69-29.66c1-.51,1.5-1.85,1.25-3.79-.45-3.6-8.93-72.1-9.58-77.1s-5-9.43-7.6-10.82l-58.68,29.67c2.63,1.39,6.94,5.81,7.59,10.82s9.13,73.5,9.57,77.1C313.9,1443.44,313.39,1444.78,312.4,1445.28Z" />
        <path class="cls-32" d="M138.86,1325.21c.24,5.69,1.08,23.34,1.12,24.27.42,3.31,2.9,7.13,5.52,8.51l15.67,8.31c-.14-.72-.27-1.45-.36-2.14-1.46-11.37,4-17.05,12.32-12.66s16.16,17.16,17.63,28.52c.09.7.15,1.4.19,2.06l67,35.51c-.14-.73-.26-1.45-.36-2.15-1.46-11.36,4.06-17,12.33-12.65s16.16,17.16,17.63,28.52c.09.7.15,1.39.19,2L309.67,1445c2.62,1.39,4.4-.17,4-3.49-.44-3.6-8.93-72.1-9.57-77.1s-5-9.43-7.59-10.82L161.9,1282.27c-2.61-1.38-4.27.23-4.92,3l-.94,32.65c0,.18.1,3.74-4.51,2.91-2.08-.39-5.17-.55-7.92-1C140.37,1319.29,138.66,1320.2,138.86,1325.21Z" />
        <path class="cls-11" d="M222.15,1345l-2.38-18.43c-.25-1.95.81-2.89,2.36-2.07l13.75,7.29a7.33,7.33,0,0,1,3.27,5.06l2.38,18.41c.25,2-.8,2.9-2.36,2.07l-13.75-7.28a7.35,7.35,0,0,1-3.27-5Z" />
        <path class="cls-11" d="M249.6,1359.56l-2.38-18.42c-.25-2,.8-2.89,2.36-2.07l13.75,7.28a7.39,7.39,0,0,1,3.27,5.06l2.37,18.42c.26,2-.79,2.9-2.35,2.06l-13.75-7.27a7.39,7.39,0,0,1-3.27-5.06Z" />
        <path class="cls-11" d="M194.7,1330.47l-2.37-18.41c-.26-2,.8-2.91,2.35-2.08l13.76,7.29a7.4,7.4,0,0,1,3.27,5.06l2.37,18.42c.25,2-.8,2.88-2.35,2.06L198,1335.52a7.32,7.32,0,0,1-3.27-5Z" />
        <path class="cls-11" d="M277,1374.11l-2.37-18.42c-.26-2,.79-2.92,2.35-2.08l13.75,7.3a7.32,7.32,0,0,1,3.27,5l2.38,18.43c.25,1.95-.8,2.88-2.36,2.06l-13.75-7.28a7.39,7.39,0,0,1-3.27-5.05Z" />
        <path class="cls-11" d="M170.41,1320.92c-1.27-.67-2.5-2.81-2.75-4.78l-.49-17.42c.37-1.63,1.34-2.61,2.59-1.94l11.76,6.22c1.26.66,2.49,2.82,2.74,4.78l2.37,18.42c.26,2-.56,3-1.82,2.36l-14.4-7.64Z" />
        <path class="cls-11" d="M311.88,1384.54c-1.19-5.78-2.36-16.14-2.36-16.14a5.33,5.33,0,0,1,3.16-5.82c4-1.87,36.88-16.71,41.34-18.9s5.32,2.09,5.32,2.09,1.38,8.83,1.91,14.81c.51,5.64-1.89,6.42-1.89,6.42l-41.84,19.62S312.74,1388.7,311.88,1384.54Z" />
        <path class="cls-16" d="M364.51,1402.44c.43,4.84-1.87,9-5.15,9.29s-6.27-3.4-6.7-8.23,1.87-9,5.15-9.28S364.08,1397.61,364.51,1402.44Z" />
        <path class="cls-16" d="M330.58,1419.56c.43,4.85-1.87,9-5.15,9.29s-6.27-3.39-6.7-8.23,1.87-9,5.15-9.28S330.15,1414.73,330.58,1419.56Z" />
    </g>
    <g id="car01">
        <polygon class="cls-5" points="649.63 1693.79 577.02 1744.21 577 1765.84 651.65 1788.93 741.13 1739.01 649.63 1693.79" />
        <path d="M472.07,1680.92l58.55-30c-3.35,1.71-5,6.54-4.11,13.48q.15,1.07.36,2.13l-58.54,30c-.15-.71-.27-1.43-.36-2.14C467,1687.45,468.72,1682.63,472.07,1680.92Z" />
        <path d="M549.57,1688.64,491,1718.59c2.46-1.27,3.7-4.81,3-9.9-1.11-8.35-13.21-18.14-19.3-21.33l64.79-29.53c6.08,3.19,11.94,12.55,13.06,20.91C553.26,1683.84,552,1687.38,549.57,1688.64Z" />
        <path class="cls-6" d="M481,1687.78c6.1,3.19,11.95,12.56,13.06,20.91s-2.92,12.52-9,9.33-11.93-12.55-13.05-20.9S474.88,1684.6,481,1687.78Z" />
        <path class="cls-7" d="M483.9,1709.71c2.74,1.43,4.55-.45,4.05-4.21s-3.13-8-5.87-9.4-4.55.45-4.05,4.2,3.13,8,5.87,9.41Z" />
        <path class="cls-8" d="M456.94,1654.93q29.28-15,58.55-29.94c.8-.41,2-.28,3.52.38,3,1.27,11.65,3.27,18.29,6.38L482,1663.69c-6.63-3.12-18.57-7.1-21.53-8.37C458.9,1654.65,457.74,1654.52,456.94,1654.93Z" />
        <path class="cls-9" d="M488.07,1637.88l58.55-29.94a3,3,0,0,1,2.87.23L491,1638.12A3.09,3.09,0,0,0,488.07,1637.88Z" />
        <path d="M561.58,1727.8l58.54-30c-3.34,1.72-5,6.54-4.1,13.47.1.72.23,1.43.36,2.15l-58.55,30c-.14-.72-.26-1.43-.36-2.15C556.55,1734.33,558.23,1729.51,561.58,1727.8Z" />
        <path d="M639.21,1735.6l-58.54,29.94c2.45-1.25,3.69-4.8,3-9.9-1.12-8.34-13.16-18.16-19.25-21.36l64.73-29.49c6.09,3.19,12,12.56,13.06,20.91C642.91,1730.79,641.67,1734.34,639.21,1735.6Z" />
        <path class="cls-6" d="M570.62,1734.74c6.09,3.19,12,12.56,13.07,20.9s-2.93,12.53-9,9.34-11.94-12.55-13-20.9S564.53,1731.55,570.62,1734.74Z" />
        <path class="cls-7" d="M573.55,1756.65c2.75,1.45,4.57-.43,4.07-4.19s-3.14-8-5.89-9.4-4.55.45-4.05,4.2,3.13,8,5.87,9.39Z" />
        <polygon class="cls-8" points="490.95 1638.12 549.5 1608.16 603.41 1636.41 544.86 1666.35 490.95 1638.12" />
        <path class="cls-9" d="M609.92,1645.39c-1.53-3.88-3.88-7.6-6.51-9l-58.55,29.94c2.62,1.38,5,5.11,6.5,9l8.3,23.47,58.55-30Z" />
        <path class="cls-8" d="M661,1735.67l-58.55,29.94c1-.5,1.49-1.85,1.23-3.78l58.55-29.95C662.43,1733.82,661.94,1735.16,661,1735.67Z" />
        <path class="cls-9" d="M598.07,1735.31l58.55-30c.76,5.33,5.32,25.46,5.56,26.52l-58.55,29.95C603.39,1760.78,598.84,1740.63,598.07,1735.31Z" />
        <path class="cls-8" d="M559.66,1698.8l58.55-30c.11.31,2.24,6.23,6,8.43,6.74,3.9,22.36,14.63,25.4,16.51,4.12,2.53,6.25,6.23,7,11.57l-58.55,30c-.75-5.33-2.88-9-7-11.57-3-1.88-18.67-12.62-25.4-16.52C561.9,1705,559.76,1699.11,559.66,1698.8Z" />
        <path class="cls-10" d="M598.07,1735.31c.77,5.32,5.32,25.47,5.56,26.52.44,3.31-1.33,4.88-4,3.51l-12-6.28q-.06-1-.21-2.07c-1.51-11.34-9.46-24.07-17.76-28.41s-13.77,1.34-12.26,12.69c.1.72.22,1.43.36,2.15l-59.64-31.25c0-.66-.11-1.35-.2-2.05-1.52-11.36-9.47-24.09-17.77-28.43s-13.77,1.35-12.25,12.7c.09.71.21,1.43.36,2.14l-5.8-3c-2.62-1.37-5.11-5.16-5.55-8.48,0-1-.58-19-1.24-24.25s.72-7.15,4.72-5.44c3,1.27,11.66,3.27,18.29,6.37,3.72,1.73,4.46-2.68,4.5-2.92l2.79-17.66c.65-2.73,2.29-4.36,4.91-3l53.91,28.23c2.62,1.38,5,5.11,6.5,9l8.3,23.47c.1.31,2.24,6.23,6,8.42,6.73,3.9,22.36,14.64,25.4,16.52C595.19,1726.27,597.32,1730,598.07,1735.31Z" />
        <path class="cls-11" d="M517.26,1679.63l-2.45-18.41a7.42,7.42,0,0,0-3.31-5l-14.8-7.75c-1.55-.81-2.79,0-3.28,1.59L491.17,1666a7.34,7.34,0,0,0,3.3,5l20.45,10.71c1.56.82,2.61-.11,2.34-2.07Z" />
        <path class="cls-11" d="M550.43,1700.31c1.56.81,2.61-.12,2.35-2.08l-7.18-20.88c-1-2.36-2.68-4.72-4.23-5.54l-14.8-7.75c-1.57-.81-2.6.12-2.35,2.09l2.47,18.4a7.39,7.39,0,0,0,3.29,5l20.45,10.71Z" />
        <path class="cls-11" d="M563.42,1691.76c-1.44-4-5.66-16-5.66-16s-1.56-3.16,2.33-5.11,36.65-18.4,41-20.7,5.29,2,5.29,2,3.54,8.7,5.18,14.67c1.52,5.53-1.73,6.54-1.73,6.54L569,1693.78S564.85,1695.81,563.42,1691.76Z" />
        <path class="cls-16" d="M654.1,1725.41c.45,4.84-1.83,9-5.1,9.31s-6.29-3.36-6.73-8.2,1.83-9,5.09-9.3S653.65,1720.58,654.1,1725.41Z" />
        <path class="cls-16" d="M620.19,1741.94c.45,4.83-1.84,9-5.1,9.31s-6.29-3.37-6.75-8.2,1.84-9,5.11-9.31S619.74,1737.11,620.19,1741.94Z" />
    </g>
    <g id="house01">
        <polygon class="cls-17" points="389.91 2000 633.32 1880.04 420.05 1795.59 190.88 1913.73 190.64 1957.56 370.26 2000 389.91 2000" />
        <polygon class="cls-18" points="174.41 1849.37 429.28 1713.83 445.51 1822.02 190.64 1957.56 174.41 1849.37" />
        <polygon class="cls-19" points="106.64 1716.05 361.52 1580.51 297.56 1633.82 42.68 1769.36 106.64 1716.05" />
        <polygon class="cls-16" points="109.86 1737.62 196.27 1860.38 174.41 1849.37 190.64 1957.56 88.24 1905.98 72 1797.79 50.09 1786.75 109.86 1737.62" />
        <polygon class="cls-20" points="155.56 1887.85 148.9 1843.47 99.72 1818.7 106.37 1863.08 155.56 1887.85 155.56 1887.85" />
        <polygon class="cls-19" points="109.86 1737.62 364.74 1602.08 451.15 1724.84 196.27 1860.38 109.86 1737.62" />
        <polygon class="cls-22" points="205.48 1841.76 460.36 1706.22 454.15 1712.71 199.27 1848.25 205.48 1841.76" />
        <polygon class="cls-21" points="103.67 1696.43 358.54 1560.89 460.36 1706.22 205.48 1841.76 103.67 1696.43" />
        <polygon class="cls-22" points="103.67 1696.43 205.48 1841.76 199.27 1848.25 106.64 1716.05 42.68 1769.36 33.33 1755.08 103.67 1696.43" />
    </g>
</svg>