<svg xmlns="http://www.w3.org/2000/svg" viewBox="0 0 2000 2000">
    <defs>
        <style>
            .cls-1 {
                fill: #7fc44c;
            }

            .cls-2 {
                opacity: 0.2;
            }

            .cls-3 {
                fill: #d75f00;
            }

            .cls-4 {
                fill: #e98b0b;
            }

            .cls-5 {
                fill: #3c3c3c;
            }

            .cls-6 {
                fill: #dcdcdc;
            }

            .cls-7 {
                fill: #e57200;
            }

            .cls-8 {
                fill: #eda738;
            }

            .cls-9 {
                fill: #f2f2f2;
            }

            .cls-10 {
                fill: #fff;
            }
        </style>
    </defs>
    <title>city2</title>
    <g id="road">
        <rect class="cls-1" width="2000" height="2000" />
    </g>
    <g id="car01">
        <polygon class="cls-2" points="704.47 291.29 631.87 341.71 631.85 363.34 706.5 386.43 795.98 336.51 704.47 291.29" />
        <path class="cls-3" d="M578.92,244l-58.69,29.67c-3.36,1.69-5.06,6.51-4.17,13.46.09.69.22,1.42.35,2.14l58.69-29.67c-.14-.72-.26-1.44-.35-2.14C573.86,250.5,575.57,245.68,578.92,244Z" />
        <path class="cls-4" d="M509.81,243.52l58.69-29.67a4.69,4.69,0,0,1-3,.24c-2.09-.38-5.17-.53-7.92-1a5.15,5.15,0,0,0-3.07.19L495.79,243a4.94,4.94,0,0,1,3.06-.22c2.76.45,5.84.6,7.93,1A4.83,4.83,0,0,0,509.81,243.52Z" />
        <path d="M539.35,312l58.7-29.67c2.46-1.23,3.72-4.78,3.06-9.89-1.08-8.35-6.88-17.74-13-21l-65,29.26c6.09,3.22,18.21,13,19.29,21.35C543.08,307.19,541.82,310.73,539.35,312Z" />
        <path class="cls-5" d="M529.47,281.12c-6.08-3.22-10.14.94-9.06,9.29s6.88,17.75,13,21,10.13-.95,9-9.31S535.54,284.34,529.47,281.12Z" />
        <path class="cls-6" d="M532.3,303.05c-2.74-1.45-5.35-5.67-5.83-9.42s1.34-5.64,4.08-4.18,5.33,5.66,5.82,9.42-1.34,5.64-4.07,4.18Z" />
        <path class="cls-4" d="M573,175.32,514.27,205a3.07,3.07,0,0,1,2.88.26l58.69-29.68A3.06,3.06,0,0,0,573,175.32Z" />
        <path class="cls-3" d="M675.71,295.27,617,325c-3.36,1.69-5.07,6.51-4.18,13.46.1.7.22,1.42.36,2.14l58.69-29.67c-.13-.73-.26-1.44-.35-2.14C670.64,301.79,672.35,297,675.71,295.27Z" />
        <path d="M635.86,363.11l58.69-29.66c2.47-1.26,3.72-4.8,3.07-9.9-1.08-8.36-6.88-17.74-13-21l-63.85,28.75c6.08,3.23,17,13.53,18.11,21.88C639.58,358.32,638.33,361.86,635.86,363.11Z" />
        <path class="cls-5" d="M626,332.26c-6.08-3.23-10.14.95-9.05,9.3s6.88,17.74,13,21,10.13-.95,9-9.3S632.05,335.47,626,332.26Z" />
        <path class="cls-6" d="M628.8,354.19c-2.73-1.44-5.34-5.66-5.83-9.42s1.34-5.64,4.08-4.19,5.34,5.66,5.83,9.44-1.35,5.62-4.08,4.17Z" />
        <polygon class="cls-4" points="651.73 276.55 710.41 246.87 575.84 175.56 517.15 205.24 651.73 276.55" />
        <path class="cls-7" d="M667.65,368.24q29.36-14.82,58.69-29.66c1-.5,1.5-1.85,1.24-3.79-.44-3.59-8.92-72.1-9.58-77.09s-5-9.43-7.59-10.83l-58.68,29.68c2.63,1.39,6.94,5.8,7.59,10.81s9.13,73.5,9.57,77.11C669.15,366.4,668.64,367.75,667.65,368.24Z" />
        <path class="cls-8" d="M494.11,248.17c.23,5.7,1.08,23.34,1.12,24.27.42,3.32,2.9,7.14,5.52,8.52l15.66,8.3c-.13-.72-.26-1.45-.35-2.14-1.46-11.36,4-17,12.32-12.65S544.54,291.62,546,303c.09.7.15,1.39.19,2.06l67,35.5c-.14-.72-.26-1.44-.36-2.14-1.46-11.37,4.06-17,12.33-12.66s16.16,17.17,17.63,28.53c.09.69.15,1.38.19,2.05L664.92,368c2.62,1.38,4.4-.18,4-3.49-.44-3.61-8.93-72.11-9.57-77.11s-5-9.42-7.59-10.81L517.15,205.24c-2.61-1.39-4.27.23-4.92,3l-.94,32.64c0,.19.1,3.75-4.51,2.91-2.09-.39-5.17-.54-7.93-1C495.62,242.26,493.91,243.16,494.11,248.17Z" />
        <path class="cls-9" d="M577.4,268,575,249.56c-.25-2,.81-2.9,2.36-2.08l13.75,7.3a7.32,7.32,0,0,1,3.27,5l2.38,18.42c.25,2-.8,2.89-2.36,2.07L580.67,273a7.32,7.32,0,0,1-3.27-5Z" />
        <path class="cls-9" d="M604.85,282.52l-2.38-18.41c-.25-2,.8-2.9,2.36-2.07l13.75,7.27a7.41,7.41,0,0,1,3.27,5.07l2.37,18.41c.26,2-.8,2.9-2.35,2.07l-13.75-7.28a7.37,7.37,0,0,1-3.27-5.06Z" />
        <path class="cls-9" d="M550,253.44,547.58,235c-.26-2,.8-2.91,2.35-2.08l13.76,7.28a7.42,7.42,0,0,1,3.27,5.06l2.37,18.43c.25,2-.8,2.88-2.35,2.06l-13.76-7.29a7.35,7.35,0,0,1-3.27-5.05Z" />
        <path class="cls-9" d="M632.29,297.07l-2.37-18.42c-.26-2,.79-2.91,2.34-2.08l13.76,7.3a7.35,7.35,0,0,1,3.27,5.05l2.37,18.42c.26,2-.79,2.89-2.35,2.07l-13.75-7.29a7.35,7.35,0,0,1-3.27-5.05Z" />
        <path class="cls-9" d="M525.66,243.89c-1.27-.68-2.5-2.81-2.75-4.78l-.49-17.42c.37-1.64,1.34-2.61,2.59-1.95L536.77,226c1.26.66,2.49,2.81,2.74,4.78l2.37,18.41c.26,2-.56,3-1.82,2.37l-14.4-7.64Z" />
        <path class="cls-9" d="M667.13,307.5c-1.19-5.77-2.36-16.13-2.36-16.13a5.33,5.33,0,0,1,3.16-5.82c4-1.87,36.88-16.71,41.34-18.9s5.32,2.08,5.32,2.08,1.38,8.83,1.91,14.82c.51,5.64-1.89,6.41-1.89,6.41l-41.84,19.63S668,311.66,667.13,307.5Z" />
        <path class="cls-10" d="M719.76,325.41c.43,4.83-1.87,9-5.15,9.29s-6.27-3.4-6.7-8.24,1.87-9,5.15-9.28S719.33,320.57,719.76,325.41Z" />
        <path class="cls-10" d="M685.83,342.53c.42,4.84-1.87,9-5.15,9.29s-6.27-3.39-6.7-8.23,1.87-9,5.14-9.29S685.4,337.69,685.83,342.53Z" />
    </g>
</svg>